<svg width="512" height="512" viewBox="0 0 512 512" fill="none" xmlns="http://www.w3.org/2000/svg">
<path d="M435.1 298.2L432.728 299.48C423.146 287.852 406.545 283.346 393.897 289.756C393.852 289.778 393.807 289.802 393.763 289.825L388.163 292.84C381.485 287.185 373.224 283.728 364.509 282.941C355.793 282.153 347.047 284.074 339.463 288.44L309.308 304.84H269.182C260.493 304.828 251.919 302.864 244.092 299.091L238.572 296.421C222.857 288.774 205.332 285.626 187.938 287.325C170.544 289.024 153.959 295.503 140.02 306.046C139.889 306.146 139.761 306.246 139.639 306.359L126.312 318.223C121.276 322.696 115.322 326.015 108.869 327.946L101.3 303.1C100.925 301.87 100.165 300.793 99.1316 300.028C98.0984 299.263 96.8467 298.85 95.561 298.85H31.108C30.2588 298.85 29.4192 299.03 28.6449 299.379C27.8705 299.727 27.1789 300.236 26.6159 300.872C26.053 301.508 25.6313 302.256 25.379 303.067C25.1266 303.878 25.0492 304.733 25.152 305.576L46.636 481.736C46.8133 483.191 47.517 484.53 48.6143 485.502C49.7115 486.474 51.1264 487.01 52.592 487.01H149.266C150.204 487.01 151.128 486.79 151.966 486.368C152.803 485.946 153.53 485.334 154.088 484.581C154.646 483.827 155.019 482.953 155.179 482.029C155.338 481.105 155.278 480.157 155.005 479.26L142.305 437.586L181.859 412.586C187.151 409.658 193.36 408.854 199.224 410.339C199.348 410.37 199.473 410.398 199.599 410.42L280.058 425.236C301.924 429.148 324.467 425.965 344.395 416.152C344.65 416.026 344.895 415.883 345.129 415.722L484.293 320.17C485.554 319.304 486.436 317.99 486.76 316.495C487.085 315.001 486.826 313.439 486.037 312.129C480.973 303.695 472.851 297.54 463.363 294.946C453.874 292.351 443.751 293.517 435.1 298.2V298.2ZM399.383 300.428C406.698 296.765 415.907 299.768 421.789 305.381L369.017 333.851L365.917 335.484C364.246 330.739 361.804 326.303 358.689 322.353L399.383 300.428ZM345.27 298.943C345.317 298.916 345.37 298.89 345.412 298.862C350.138 296.13 355.511 294.716 360.97 294.767C366.429 294.819 371.775 296.333 376.449 299.154L349.618 313.6C344.503 309.867 338.666 307.24 332.48 305.887L345.27 298.943ZM57.9 475.01L37.885 310.85H91.114L141.164 475.01H57.9ZM338.684 405.579C321.163 414.108 301.387 416.856 282.205 413.427L201.944 398.647C193.116 396.467 183.789 397.731 175.859 402.182C175.766 402.233 175.673 402.289 175.582 402.347L138.667 425.684L112.367 339.433C120.477 336.989 127.956 332.806 134.284 327.176L147.423 315.476C159.596 306.324 174.059 300.71 189.219 299.251C204.378 297.793 219.646 300.547 233.341 307.211L238.86 309.881C248.317 314.439 258.677 316.813 269.175 316.827H322.7C330.566 316.838 338.182 319.588 344.241 324.605C350.299 329.621 354.422 336.591 355.9 344.317L317.105 342.562C303.002 341.928 288.87 342.581 274.885 344.513C273.321 344.745 271.912 345.585 270.964 346.851C270.016 348.116 269.606 349.705 269.823 351.271C270.04 352.837 270.866 354.254 272.122 355.215C273.378 356.175 274.963 356.601 276.531 356.399C289.791 354.566 303.19 353.948 316.562 354.551L362.218 356.616C362.309 356.616 362.4 356.622 362.49 356.622C364.081 356.622 365.607 355.99 366.733 354.865C367.858 353.739 368.49 352.213 368.49 350.622C368.49 349.651 368.449 348.689 368.39 347.732L374.651 344.432L440.8 308.756C445.88 306.005 451.727 305.009 457.431 305.924C463.136 306.838 468.378 309.611 472.344 313.812L338.684 405.579Z" fill="white"/>
<path d="M76.974 450.188C76.974 453.924 78.0819 457.576 80.1575 460.683C82.2332 463.789 85.1834 466.21 88.6351 467.64C92.0868 469.07 95.885 469.444 99.5493 468.715C103.214 467.986 106.579 466.187 109.221 463.545C111.863 460.903 113.662 457.538 114.391 453.873C115.12 450.209 114.746 446.411 113.316 442.959C111.886 439.507 109.465 436.557 106.359 434.482C103.252 432.406 99.6001 431.298 95.864 431.298C90.8558 431.304 86.0543 433.295 82.5129 436.837C78.9715 440.378 76.9796 445.18 76.974 450.188V450.188ZM95.864 443.298C97.2267 443.298 98.5588 443.702 99.6919 444.459C100.825 445.216 101.708 446.292 102.23 447.551C102.751 448.81 102.887 450.196 102.622 451.532C102.356 452.869 101.7 454.096 100.736 455.06C99.7724 456.024 98.5447 456.68 97.2082 456.946C95.8716 457.211 94.4863 457.075 93.2273 456.553C91.9683 456.032 90.8923 455.149 90.1352 454.016C89.3781 452.883 88.974 451.551 88.974 450.188C88.9772 448.362 89.7042 446.611 90.9957 445.32C92.2872 444.029 94.0378 443.303 95.864 443.3V443.298Z" fill="white"/>
<path d="M301.622 90.305V70.533C301.566 58.4911 296.742 46.9616 288.207 38.4666C279.672 29.9715 268.121 25.2024 256.078 25.2024C244.036 25.2024 232.485 29.9715 223.95 38.4666C215.415 46.9616 210.591 58.4911 210.535 70.533V90.305C210.591 102.347 215.415 113.876 223.95 122.371C232.485 130.866 244.036 135.636 256.078 135.636C268.121 135.636 279.672 130.866 288.207 122.371C296.742 113.876 301.566 102.347 301.622 90.305ZM222.535 90.305V70.533C222.583 61.6684 226.139 53.1834 232.424 46.9323C238.71 40.6811 247.214 37.1721 256.078 37.1721C264.943 37.1721 273.447 40.6811 279.733 46.9323C286.018 53.1834 289.574 61.6684 289.622 70.533V90.305C289.574 99.1695 286.018 107.655 279.733 113.906C273.447 120.157 264.943 123.666 256.078 123.666C247.214 123.666 238.71 120.157 232.424 113.906C226.139 107.655 222.583 99.1695 222.535 90.305V90.305Z" fill="white"/>
<path d="M182.668 259.425H329.49C331.081 259.425 332.607 258.793 333.733 257.668C334.858 256.542 335.49 255.016 335.49 253.425V239.653H436C437.591 239.653 439.117 239.021 440.243 237.896C441.368 236.77 442 235.244 442 233.653V194.709C441.993 183.282 437.637 172.286 429.816 163.954C421.995 155.623 411.296 150.581 399.892 149.853C396.692 149.618 395.047 151.644 393.713 153.271C391.059 156.514 387.699 159.109 383.89 160.857C380.08 162.605 375.923 163.46 371.733 163.358C367.543 163.256 363.432 162.198 359.712 160.266C355.993 158.334 352.764 155.579 350.271 152.21C349.698 151.435 348.947 150.809 348.081 150.385C347.215 149.962 346.26 149.753 345.296 149.777C337.502 149.952 329.891 152.173 323.225 156.216C318.824 151.099 313.441 146.917 307.395 143.918C301.349 140.919 294.762 139.164 288.025 138.757C284.925 138.631 283.357 140.513 281.838 142.357C278.723 146.163 274.781 149.208 270.311 151.26C265.841 153.312 260.962 154.316 256.045 154.195C251.128 154.075 246.304 152.834 241.94 150.567C237.575 148.3 233.786 145.066 230.861 141.112C230.289 140.336 229.538 139.709 228.672 139.286C227.806 138.862 226.85 138.654 225.886 138.68C212.728 138.984 200.215 144.443 191.041 153.88C190.283 154.655 189.564 155.458 188.863 156.273C182.667 152.501 175.646 150.297 168.406 149.851C165.217 149.616 163.56 151.642 162.227 153.269C159.573 156.512 156.213 159.107 152.404 160.855C148.595 162.603 144.437 163.458 140.247 163.356C136.057 163.254 131.946 162.196 128.227 160.264C124.508 158.332 121.279 155.577 118.786 152.208C118.212 151.434 117.461 150.808 116.595 150.385C115.729 149.961 114.775 149.752 113.811 149.775C102.091 150.073 90.9516 154.938 82.7673 163.332C74.5831 171.726 70.0017 182.985 70 194.709V233.653C70 235.244 70.6321 236.77 71.7574 237.896C72.8826 239.021 74.4087 239.653 76 239.653H176.668V253.425C176.668 255.016 177.3 256.542 178.425 257.668C179.551 258.793 181.077 259.425 182.668 259.425V259.425ZM342.734 161.967C346.433 166.166 350.981 169.531 356.078 171.841C361.175 174.152 366.703 175.354 372.299 175.369C377.895 175.383 383.43 174.21 388.539 171.926C393.647 169.643 398.213 166.301 401.934 162.122C409.736 163.299 416.858 167.234 422.008 173.213C427.157 179.192 429.993 186.818 430 194.709V227.653H335.49V189.162C335.496 181.172 333.595 173.296 329.945 166.188C333.866 163.902 338.223 162.464 342.734 161.967V161.967ZM223.3 150.862C227.449 155.665 232.58 159.52 238.348 162.168C244.115 164.816 250.384 166.194 256.731 166.209C263.077 166.224 269.353 164.876 275.133 162.255C280.913 159.635 286.063 155.804 290.234 151.021C299.447 152.295 307.888 156.858 314.001 163.868C320.114 170.878 323.485 179.861 323.494 189.162V247.425H188.668V189.162C188.728 179.638 192.291 170.47 198.678 163.406C205.066 156.342 213.831 151.877 223.3 150.862V150.862ZM82 227.653V194.709C82.0507 186.625 85.0511 178.838 90.4378 172.809C95.8244 166.781 103.227 162.927 111.254 161.971C114.953 166.168 119.501 169.533 124.597 171.842C129.693 174.151 135.221 175.353 140.816 175.367C146.41 175.381 151.944 174.208 157.052 171.925C162.16 169.642 166.724 166.3 170.445 162.122C174.576 162.74 178.551 164.142 182.155 166.254C178.538 173.348 176.657 181.199 176.668 189.162V227.653H82Z" fill="white"/>
<path d="M412.354 108.179V90.872C412.354 80.101 408.075 69.7712 400.459 62.155C392.843 54.5388 382.513 50.26 371.742 50.26C360.971 50.26 350.641 54.5388 343.025 62.155C335.409 69.7712 331.13 80.101 331.13 90.872V108.179C331.13 118.95 335.409 129.28 343.025 136.896C350.641 144.512 360.971 148.791 371.742 148.791C382.513 148.791 392.843 144.512 400.459 136.896C408.075 129.28 412.354 118.95 412.354 108.179V108.179ZM343.13 108.179V90.872C343.13 83.2836 346.144 76.0061 351.51 70.6403C356.876 65.2745 364.154 62.26 371.742 62.26C379.33 62.26 386.608 65.2745 391.974 70.6403C397.34 76.0061 400.354 83.2836 400.354 90.872V108.179C400.354 115.767 397.34 123.045 391.974 128.411C386.608 133.777 379.33 136.791 371.742 136.791C364.154 136.791 356.876 133.777 351.51 128.411C346.144 123.045 343.13 115.767 343.13 108.179V108.179Z" fill="white"/>
<path d="M180.87 108.179V90.872C180.87 85.5388 179.82 80.2577 177.779 75.3305C175.738 70.4032 172.746 65.9262 168.975 62.155C165.204 58.3838 160.727 55.3924 155.8 53.3514C150.872 51.3105 145.591 50.26 140.258 50.26C134.925 50.26 129.644 51.3105 124.716 53.3514C119.789 55.3924 115.312 58.3838 111.541 62.155C107.77 65.9262 104.778 70.4032 102.737 75.3305C100.696 80.2577 99.646 85.5388 99.646 90.872V108.179C99.646 113.512 100.696 118.793 102.737 123.721C104.778 128.648 107.77 133.125 111.541 136.896C115.312 140.667 119.789 143.659 124.716 145.7C129.644 147.741 134.925 148.791 140.258 148.791C145.591 148.791 150.872 147.741 155.8 145.7C160.727 143.659 165.204 140.667 168.975 136.896C172.746 133.125 175.738 128.648 177.779 123.721C179.82 118.793 180.87 113.512 180.87 108.179V108.179ZM111.646 108.179V90.872C111.646 83.2836 114.66 76.0061 120.026 70.6403C125.392 65.2745 132.67 62.26 140.258 62.26C147.846 62.26 155.124 65.2745 160.49 70.6403C165.856 76.0061 168.87 83.2836 168.87 90.872V108.179C168.87 111.936 168.13 115.657 166.692 119.128C165.254 122.6 163.147 125.754 160.49 128.411C157.833 131.068 154.679 133.175 151.207 134.613C147.736 136.051 144.015 136.791 140.258 136.791C136.501 136.791 132.78 136.051 129.309 134.613C125.837 133.175 122.683 131.068 120.026 128.411C117.369 125.754 115.262 122.6 113.824 119.128C112.386 115.657 111.646 111.936 111.646 108.179V108.179Z" fill="white"/>
</svg>
