<svg width="512" height="512" viewBox="0 0 512 512" fill="none" xmlns="http://www.w3.org/2000/svg">
<g clip-path="url(#clip0)">
<path d="M48 320.004H63.9998V464.002H48V320.004Z" fill="white"/>
<path d="M80 320.004H95.9998V464.002H80V320.004Z" fill="white"/>
<path d="M111.999 320.003H127.999V464.002H111.999V320.003Z" fill="white"/>
<path d="M143.998 432.002H159.998V464.002H143.998V432.002Z" fill="white"/>
<path d="M175.998 432.002H191.998V464.002H175.998V432.002Z" fill="white"/>
<path d="M482.819 375.202L459.019 353.456C459.218 350.409 459.323 347.401 459.323 344.456C459.323 341.515 459.218 338.507 459.019 335.464L487.675 309.273L476.94 276.324L438.394 272.004C435.195 266.941 431.667 262.094 427.835 257.492L435.62 219.493L407.57 199.051L373.82 218.164C368.246 215.918 362.531 214.047 356.707 212.563L340.508 176.86H306.165L289.966 212.563C284.142 214.047 278.427 215.918 272.853 218.164L263.997 213.157V0.0065918H0V512.001H263.997V475.752L272.86 470.728C278.431 472.974 284.145 474.845 289.966 476.33L306.165 512.001H340.492L356.692 476.295C362.516 474.81 368.23 472.939 373.805 470.697L401.277 486.255C424.546 504.087 456.569 505.189 481.011 489.001L490.612 482.666L446.05 450.033L465.436 423.569L508.963 455.455L511.084 442.615C515.377 416.576 504.401 390.377 482.827 375.178L482.819 375.202ZM271.86 236.004L275.524 234.403C282.556 231.34 289.868 228.961 297.356 227.297L301.262 226.434L316.461 192.907H330.149L345.348 226.434L349.254 227.297C356.742 228.961 364.051 231.34 371.086 234.403L374.75 236.004L407.066 217.707C410.804 220.196 414.453 222.852 417.964 225.653L410.5 262.051L413.148 265.043C418.234 270.785 422.761 277.004 426.66 283.609L428.691 287.043L465.628 291.164C467.226 295.347 468.589 299.609 469.78 303.914L442.394 328.98L442.78 332.98C443.148 336.882 443.331 340.753 443.331 344.483C443.331 348.21 443.148 352.081 442.78 355.987L442.394 359.987L445.284 362.632C444.484 362.632 443.773 362.514 442.995 362.514C433.175 362.514 423.468 364.608 414.523 368.659L394.523 354.811C398.609 327.753 386.929 300.734 364.422 285.175C341.918 269.613 312.516 268.226 288.645 281.601L270.767 269.242C273.056 257.441 272.142 245.242 268.126 233.914L271.86 236.004ZM379.324 344.257L303.86 292.089C320.993 285.57 340.235 287.902 355.313 298.324C370.391 308.749 379.371 325.929 379.324 344.257V344.257ZM15.9998 16.0064H247.997V64.0059H95.999V48.0061H15.9998V16.0064ZM15.9998 64.0059H79.9992V80.0057H15.9998V64.0059ZM15.9998 96.0056H95.999V80.0057H247.997V144.005H95.999V128.005H15.9998V96.0056ZM15.9998 144.005H79.9992V160.005H15.9998V144.005ZM247.997 496.001H15.9998V176.005H95.999V160.005H247.997V204.09L247.509 203.821C224.166 183.981 190.518 181.966 164.975 198.876L155.373 205.211L199.935 237.844L180.549 264.308L137.038 232.418L134.92 245.258C130.655 271.055 141.397 297.035 162.631 312.288L162.479 312.464L187.631 335.456C187.439 338.476 187.334 341.483 187.334 344.448C187.334 347.417 187.439 350.433 187.631 353.44L158.975 379.631L160.104 384.233C162.1 392.417 164.709 400.44 167.908 408.233L169.717 412.608L208.279 416.905C211.478 421.967 215.006 426.815 218.838 431.416L211.052 469.416L214.662 472.49C221.091 477.943 227.916 482.916 235.076 487.361L239.076 489.857L247.997 484.798V496.001ZM374.797 452.904L371.133 454.506C364.102 457.572 356.789 459.951 349.301 461.607L345.395 462.482L330.172 496.001H316.485L301.286 462.482L297.356 461.599C289.868 459.943 282.56 457.564 275.532 454.498L271.868 452.896L239.548 471.201C235.818 468.72 232.181 466.072 228.646 463.256L236.111 426.858L233.462 423.865C228.376 418.123 223.853 411.908 219.951 405.307L217.92 401.866L180.982 397.745C179.381 393.569 178.029 389.307 176.83 384.995L204.263 359.921L203.877 355.921C203.517 352.073 203.334 348.202 203.334 344.417C203.334 340.632 203.517 336.769 203.877 332.913L204.263 328.913L200.264 325.249C201.174 325.249 202.076 325.386 203.006 325.386C212.65 325.382 222.189 323.359 231.005 319.449L252.189 334.097C251.681 337.503 251.411 340.94 251.388 344.386C251.279 369.878 264.712 393.51 286.673 406.455C308.637 419.401 335.821 419.709 358.067 407.264L375.203 419.104C374.664 422.115 374.328 425.162 374.203 428.217C374.117 429.338 374.051 430.416 374.051 431.416C374.051 433.643 374.18 435.842 374.387 438.018C374.445 438.666 374.555 439.287 374.637 439.92C374.816 441.49 375.051 443.041 375.34 444.576C375.469 445.217 375.621 445.85 375.766 446.49C376.105 448.053 376.5 449.592 376.949 451.103C377.109 451.615 377.262 452.127 377.43 452.631C377.644 453.322 377.82 454.017 378.058 454.689L374.797 452.904ZM267.341 344.651L342.797 396.799C325.668 403.323 306.426 400.991 291.348 390.569C276.271 380.147 267.294 362.972 267.341 344.644V344.651ZM461.972 401.233L423.683 453.506L461.429 481.154C443.909 487.642 424.269 484.416 409.75 472.666C408.683 471.81 407.691 470.896 406.707 469.978C406.093 469.392 405.476 468.81 404.882 468.193C403.882 467.154 402.906 466.095 402.004 464.994C401.363 464.193 400.781 463.392 400.187 462.592C399.715 461.943 399.226 461.295 398.781 460.623C398.203 459.752 397.675 458.849 397.179 457.935C396.781 457.256 396.379 456.576 396.027 455.873C395.554 454.967 395.117 454.041 394.691 453.103C394.347 452.307 394.027 451.56 393.715 450.767C393.402 449.978 393.019 448.967 392.715 448.041C392.41 447.111 392.164 446.193 391.918 445.264C391.668 444.338 391.453 443.592 391.269 442.744C391.019 441.592 390.844 440.416 390.668 439.248C390.57 438.568 390.437 437.897 390.355 437.209C390.148 435.303 390.043 433.389 390.035 431.475C390.035 430.33 390.195 429.162 390.277 428.002C390.547 425.455 391.004 422.514 391.445 420.002C391.621 419.248 391.699 418.498 391.898 417.744L393.363 412.307L232.212 300.921L227.908 303.218C212.353 311.503 193.693 311.507 178.131 303.234C162.569 294.957 152.143 279.484 150.311 261.953L183.998 286.668L222.31 234.403L184.564 206.762C203.221 199.774 224.224 203.86 238.896 217.34C253.564 230.817 259.415 251.398 254.029 270.578L252.509 276.051L413.355 387.202L417.683 384.799C433.249 376.35 452.003 376.233 467.679 384.479C483.35 392.729 493.87 408.26 495.713 425.873L461.972 401.233Z" fill="white"/>
</g>
<defs>
<clipPath id="clip0">
<rect width="512" height="512" fill="white"/>
</clipPath>
</defs>
</svg>
