<svg width="512" height="512" viewBox="0 0 512 512" fill="none" xmlns="http://www.w3.org/2000/svg">
<path d="M256 148C246.047 148 236.145 149.375 226.566 152.09C221.254 153.594 218.168 159.121 219.672 164.434C221.176 169.75 226.707 172.844 232.02 171.332C239.82 169.121 247.891 168 256 168C260.57 168 265.063 168.352 269.445 169.027C268.367 169.828 267.406 170.793 266.602 171.914L201.961 262.047C200.301 264.289 199.387 267.051 199.387 269.852C199.387 277.078 205.266 282.957 212.492 282.957H234.91L222.254 328.488C221.309 331.473 221.496 334.637 222.641 337.426C190.609 324.254 168 292.719 168 256C168 240.574 172.078 225.359 179.793 212C182.555 207.219 180.914 201.102 176.133 198.34C171.352 195.582 165.234 197.219 162.473 202C153.004 218.395 148.004 237.066 148.004 256C148.004 315.551 196.449 364 256.004 364C315.555 364 364 315.551 364 256C364 196.449 315.551 148 256 148ZM225.918 262.957L260.184 215.18L254.297 236.363C253.457 239.379 254.078 242.605 255.969 245.094C257.859 247.582 260.805 249.043 263.93 249.043H286.078L251.816 296.82L257.703 275.637C258.539 272.621 257.922 269.395 256.031 266.906C254.141 264.418 251.195 262.957 248.07 262.957H225.918ZM256 344C251.43 344 246.937 343.648 242.555 342.973C243.633 342.172 244.594 341.207 245.398 340.086L310.035 249.957C311.699 247.711 312.613 244.945 312.613 242.148C312.613 234.922 306.734 229.043 299.508 229.043H277.09L289.746 183.516C290.691 180.527 290.504 177.363 289.359 174.574C321.387 187.746 344 219.277 344 256C344 304.523 304.523 344 256 344V344Z" fill="white"/>
<path d="M396 266H482C487.52 266 492 261.523 492 256V204.895C503.641 200.77 512 189.652 512 176.617C512 160.074 498.543 146.617 482 146.617C465.457 146.617 452 160.074 452 176.617C452 189.652 460.359 200.77 472 204.895V246H396V160.535H422C427.523 160.535 432 156.059 432 150.535V104.898C443.641 100.77 452 89.6523 452 76.6172C452 60.0742 438.543 46.6172 422 46.6172C405.457 46.6172 392 60.0742 392 76.6172C392 89.6523 400.363 100.77 412 104.898V140.535H392.18C385.539 126.074 370.93 116 354 116H266V95.5352H306C311.52 95.5352 316 91.0586 316 85.5352V58.2812C327.641 54.1523 336 43.0352 336 30C336 13.457 322.543 0 306 0C289.457 0 276 13.457 276 30C276 43.0352 284.359 54.1523 296 58.2812V75.5352H256C250.477 75.5352 246 80.0117 246 85.5352V116H204.207V52.2852C204.207 46.7656 199.73 42.2852 194.207 42.2852H171.559C167.43 30.6484 156.316 22.2852 143.281 22.2852C126.738 22.2852 113.281 35.7461 113.281 52.2852C113.281 68.8281 126.738 82.2852 143.281 82.2852C156.316 82.2852 167.43 73.9258 171.559 62.2852H184.207V116H158C134.84 116 116 134.84 116 158V243.523H75V160.566C86.6367 156.438 95 145.324 95 132.285C95 115.742 81.543 102.285 65 102.285C48.457 102.285 35 115.742 35 132.285C35 145.32 43.3594 156.438 55 160.566V253.523C55 259.047 59.4766 263.523 65 263.523H116V286H30C24.4766 286 20 290.477 20 296V347.105C8.35938 351.23 0 362.348 0 375.383C0 391.926 13.457 405.383 30 405.383C46.543 405.383 60 391.926 60 375.383C60 362.348 51.6406 351.23 40 347.105V306H116V335.715H100C94.4766 335.715 90 340.191 90 345.715V417.102C78.3594 421.23 70 432.348 70 445.383C70 461.926 83.457 475.383 100 475.383C116.543 475.383 130 461.926 130 445.383C130 432.348 121.637 421.23 110 417.102V355.715H116C116.016 355.715 116.027 355.711 116.043 355.711C116.945 378.078 135.414 396 158 396H246V416.465H206C200.477 416.465 196 420.941 196 426.465V453.719C184.359 457.848 176 468.965 176 482C176 498.543 189.457 512 206 512C222.543 512 236 498.543 236 482C236 468.965 227.641 457.848 216 453.719V436.465H256C261.523 436.465 266 431.988 266 426.465V396H318.297V421.199C318.297 426.719 322.777 431.199 328.297 431.199C333.82 431.199 338.297 426.719 338.297 421.199V396H354C377.156 396 396 377.16 396 354V341.785H434C438.129 353.426 449.242 361.785 462.277 361.785C478.82 361.785 492.277 348.328 492.277 331.785C492.277 315.242 478.82 301.785 462.277 301.785C449.242 301.785 438.129 310.148 434 321.785H396V266ZM482 166.617C487.516 166.617 492 171.102 492 176.617C492 182.125 487.52 186.609 482.008 186.617C482.008 186.617 482.004 186.617 482 186.617C481.996 186.617 481.992 186.617 481.988 186.617C476.48 186.609 472 182.125 472 176.617C472 171.102 476.484 166.617 482 166.617ZM422 66.6172C427.516 66.6172 432 71.1016 432 76.6172C432 82.1289 427.516 86.6172 422 86.6172C416.488 86.6172 412 82.1289 412 76.6172C412 71.1016 416.488 66.6172 422 66.6172ZM306 20C311.516 20 316 24.4844 316 30C316 35.5156 311.516 40 306 40C300.484 40 296 35.5156 296 30C296 24.4844 300.484 20 306 20ZM143.281 62.2852C137.766 62.2852 133.281 57.8008 133.281 52.2852C133.281 46.7734 137.766 42.2852 143.281 42.2852C148.793 42.2852 153.277 46.7695 153.281 52.2812V52.2852V52.293C153.277 57.8047 148.793 62.2852 143.281 62.2852ZM65 122.285C70.5156 122.285 75 126.773 75 132.285C75 137.801 70.5156 142.285 65 142.285C59.4844 142.285 55 137.801 55 132.285C55 126.773 59.4844 122.285 65 122.285ZM30 385.383C24.4844 385.383 20 380.898 20 375.383C20 369.871 24.4844 365.383 30 365.383C35.5156 365.383 40 369.871 40 375.383C40 380.898 35.5156 385.383 30 385.383ZM100 455.383C94.4844 455.383 90 450.898 90 445.383C90 439.871 94.4844 435.383 100 435.383C105.512 435.383 110 439.871 110 445.383C110 450.898 105.516 455.383 100 455.383ZM206 492C200.484 492 196 487.516 196 482C196 476.484 200.484 472 206 472C211.516 472 216 476.484 216 482C216 487.516 211.516 492 206 492ZM462.281 321.785C467.793 321.785 472.281 326.273 472.281 331.785C472.281 337.301 467.793 341.785 462.281 341.785C456.766 341.785 452.281 337.301 452.281 331.785C452.281 326.273 456.766 321.785 462.281 321.785ZM376 354C376 366.129 366.129 376 354 376H158C145.871 376 136 366.129 136 354V158C136 145.871 145.871 136 158 136H354C366.129 136 376 145.871 376 158V354Z" fill="white"/>
<path d="M438.297 442.586V421.199C438.297 415.676 433.82 411.199 428.297 411.199H397.266C391.742 411.199 387.266 415.676 387.266 421.199C387.266 426.719 391.742 431.199 397.266 431.199H418.297V442.586C406.66 446.715 398.297 457.828 398.297 470.867C398.297 487.406 411.758 500.867 428.297 500.867C444.84 500.867 458.297 487.406 458.297 470.867C458.297 457.832 449.938 446.715 438.297 442.586V442.586ZM428.297 480.867C422.785 480.867 418.297 476.379 418.297 470.867C418.297 465.352 422.785 460.867 428.297 460.867C433.812 460.867 438.297 465.352 438.297 470.867C438.297 476.379 433.812 480.867 428.297 480.867Z" fill="white"/>
<path d="M368.535 411.199H368.266C362.742 411.199 358.266 415.676 358.266 421.199C358.266 426.719 362.742 431.199 368.266 431.199H368.535C374.055 431.199 378.535 426.719 378.535 421.199C378.535 415.676 374.055 411.199 368.535 411.199Z" fill="white"/>
<path d="M189.199 194.293C191.633 194.293 194.074 193.41 196 191.629C200.086 187.914 200.387 181.586 196.672 177.5C192.957 173.414 186.633 173.113 182.547 176.828C182.516 176.852 182.422 176.941 182.395 176.969C178.348 180.719 178.109 187.039 181.859 191.09C183.832 193.215 186.512 194.293 189.199 194.293Z" fill="white"/>
</svg>
