<svg width="167" height="55" viewBox="0 0 167 55" fill="none" xmlns="http://www.w3.org/2000/svg">
<rect width="127" height="40" transform="translate(40)" fill="white"/>
<path d="M59.25 23.66V26H49.494V13.4H59.016V15.74H52.392V18.476H58.242V20.744H52.392V23.66H59.25ZM61.3722 12.644H64.1802V26H61.3722V12.644ZM76.2722 21.194C76.2722 21.23 76.2542 21.482 76.2182 21.95H68.8922C69.0242 22.55 69.3362 23.024 69.8282 23.372C70.3202 23.72 70.9322 23.894 71.6642 23.894C72.1682 23.894 72.6122 23.822 72.9962 23.678C73.3922 23.522 73.7582 23.282 74.0942 22.958L75.5882 24.578C74.6762 25.622 73.3442 26.144 71.5922 26.144C70.5002 26.144 69.5342 25.934 68.6942 25.514C67.8542 25.082 67.2062 24.488 66.7502 23.732C66.2942 22.976 66.0662 22.118 66.0662 21.158C66.0662 20.21 66.2882 19.358 66.7322 18.602C67.1882 17.834 67.8062 17.24 68.5862 16.82C69.3782 16.388 70.2602 16.172 71.2322 16.172C72.1802 16.172 73.0382 16.376 73.8062 16.784C74.5742 17.192 75.1742 17.78 75.6062 18.548C76.0502 19.304 76.2722 20.186 76.2722 21.194ZM71.2502 18.296C70.6142 18.296 70.0802 18.476 69.6482 18.836C69.2162 19.196 68.9522 19.688 68.8562 20.312H73.6262C73.5302 19.7 73.2662 19.214 72.8342 18.854C72.4022 18.482 71.8742 18.296 71.2502 18.296ZM82.8217 26.144C81.7897 26.144 80.8597 25.934 80.0317 25.514C79.2157 25.082 78.5737 24.488 78.1057 23.732C77.6497 22.976 77.4217 22.118 77.4217 21.158C77.4217 20.198 77.6497 19.34 78.1057 18.584C78.5737 17.828 79.2157 17.24 80.0317 16.82C80.8597 16.388 81.7897 16.172 82.8217 16.172C83.8417 16.172 84.7297 16.388 85.4857 16.82C86.2537 17.24 86.8117 17.846 87.1597 18.638L84.9817 19.808C84.4777 18.92 83.7517 18.476 82.8037 18.476C82.0717 18.476 81.4657 18.716 80.9857 19.196C80.5057 19.676 80.2657 20.33 80.2657 21.158C80.2657 21.986 80.5057 22.64 80.9857 23.12C81.4657 23.6 82.0717 23.84 82.8037 23.84C83.7637 23.84 84.4897 23.396 84.9817 22.508L87.1597 23.696C86.8117 24.464 86.2537 25.064 85.4857 25.496C84.7297 25.928 83.8417 26.144 82.8217 26.144ZM95.1631 25.532C94.8871 25.736 94.5451 25.892 94.1371 26C93.7411 26.096 93.3211 26.144 92.8771 26.144C91.7251 26.144 90.8311 25.85 90.1951 25.262C89.5711 24.674 89.2591 23.81 89.2591 22.67V18.692H87.7651V16.532H89.2591V14.174H92.0671V16.532H94.4791V18.692H92.0671V22.634C92.0671 23.042 92.1691 23.36 92.3731 23.588C92.5891 23.804 92.8891 23.912 93.2731 23.912C93.7171 23.912 94.0951 23.792 94.4071 23.552L95.1631 25.532ZM99.4214 17.594C99.7574 17.126 100.207 16.772 100.771 16.532C101.347 16.292 102.007 16.172 102.751 16.172V18.764C102.439 18.74 102.229 18.728 102.121 18.728C101.317 18.728 100.687 18.956 100.231 19.412C99.7754 19.856 99.5474 20.528 99.5474 21.428V26H96.7394V16.316H99.4214V17.594ZM108.941 26.144C107.921 26.144 107.003 25.934 106.187 25.514C105.383 25.082 104.753 24.488 104.297 23.732C103.841 22.976 103.613 22.118 103.613 21.158C103.613 20.198 103.841 19.34 104.297 18.584C104.753 17.828 105.383 17.24 106.187 16.82C107.003 16.388 107.921 16.172 108.941 16.172C109.961 16.172 110.873 16.388 111.677 16.82C112.481 17.24 113.111 17.828 113.567 18.584C114.023 19.34 114.251 20.198 114.251 21.158C114.251 22.118 114.023 22.976 113.567 23.732C113.111 24.488 112.481 25.082 111.677 25.514C110.873 25.934 109.961 26.144 108.941 26.144ZM108.941 23.84C109.661 23.84 110.249 23.6 110.705 23.12C111.173 22.628 111.407 21.974 111.407 21.158C111.407 20.342 111.173 19.694 110.705 19.214C110.249 18.722 109.661 18.476 108.941 18.476C108.221 18.476 107.627 18.722 107.159 19.214C106.691 19.694 106.457 20.342 106.457 21.158C106.457 21.974 106.691 22.628 107.159 23.12C107.627 23.6 108.221 23.84 108.941 23.84ZM119.386 26.144C118.582 26.144 117.796 26.048 117.028 25.856C116.26 25.652 115.648 25.4 115.192 25.1L116.128 23.084C116.56 23.36 117.082 23.588 117.694 23.768C118.306 23.936 118.906 24.02 119.494 24.02C120.682 24.02 121.276 23.726 121.276 23.138C121.276 22.862 121.114 22.664 120.79 22.544C120.466 22.424 119.968 22.322 119.296 22.238C118.504 22.118 117.85 21.98 117.334 21.824C116.818 21.668 116.368 21.392 115.984 20.996C115.612 20.6 115.426 20.036 115.426 19.304C115.426 18.692 115.6 18.152 115.948 17.684C116.308 17.204 116.824 16.832 117.496 16.568C118.18 16.304 118.984 16.172 119.908 16.172C120.592 16.172 121.27 16.25 121.942 16.406C122.626 16.55 123.19 16.754 123.634 17.018L122.698 19.016C121.846 18.536 120.916 18.296 119.908 18.296C119.308 18.296 118.858 18.38 118.558 18.548C118.258 18.716 118.108 18.932 118.108 19.196C118.108 19.496 118.27 19.706 118.594 19.826C118.918 19.946 119.434 20.06 120.142 20.168C120.934 20.3 121.582 20.444 122.086 20.6C122.59 20.744 123.028 21.014 123.4 21.41C123.772 21.806 123.958 22.358 123.958 23.066C123.958 23.666 123.778 24.2 123.418 24.668C123.058 25.136 122.53 25.502 121.834 25.766C121.15 26.018 120.334 26.144 119.386 26.144ZM131.937 25.532C131.661 25.736 131.319 25.892 130.911 26C130.515 26.096 130.095 26.144 129.651 26.144C128.499 26.144 127.605 25.85 126.969 25.262C126.345 24.674 126.033 23.81 126.033 22.67V18.692H124.539V16.532H126.033V14.174H128.841V16.532H131.253V18.692H128.841V22.634C128.841 23.042 128.943 23.36 129.147 23.588C129.363 23.804 129.663 23.912 130.047 23.912C130.491 23.912 130.869 23.792 131.181 23.552L131.937 25.532ZM136.195 17.594C136.531 17.126 136.981 16.772 137.545 16.532C138.121 16.292 138.781 16.172 139.525 16.172V18.764C139.213 18.74 139.003 18.728 138.895 18.728C138.091 18.728 137.461 18.956 137.005 19.412C136.549 19.856 136.321 20.528 136.321 21.428V26H133.513V16.316H136.195V17.594ZM145.048 16.172C146.548 16.172 147.7 16.532 148.504 17.252C149.308 17.96 149.71 19.034 149.71 20.474V26H147.082V24.794C146.554 25.694 145.57 26.144 144.13 26.144C143.386 26.144 142.738 26.018 142.186 25.766C141.646 25.514 141.232 25.166 140.944 24.722C140.656 24.278 140.512 23.774 140.512 23.21C140.512 22.31 140.848 21.602 141.52 21.086C142.204 20.57 143.254 20.312 144.67 20.312H146.902C146.902 19.7 146.716 19.232 146.344 18.908C145.972 18.572 145.414 18.404 144.67 18.404C144.154 18.404 143.644 18.488 143.14 18.656C142.648 18.812 142.228 19.028 141.88 19.304L140.872 17.342C141.4 16.97 142.03 16.682 142.762 16.478C143.506 16.274 144.268 16.172 145.048 16.172ZM144.832 24.254C145.312 24.254 145.738 24.146 146.11 23.93C146.482 23.702 146.746 23.372 146.902 22.94V21.95H144.976C143.824 21.95 143.248 22.328 143.248 23.084C143.248 23.444 143.386 23.732 143.662 23.948C143.95 24.152 144.34 24.254 144.832 24.254ZM158.497 25.532C158.221 25.736 157.879 25.892 157.471 26C157.075 26.096 156.655 26.144 156.211 26.144C155.059 26.144 154.165 25.85 153.529 25.262C152.905 24.674 152.593 23.81 152.593 22.67V18.692H151.099V16.532H152.593V14.174H155.401V16.532H157.813V18.692H155.401V22.634C155.401 23.042 155.503 23.36 155.707 23.588C155.923 23.804 156.223 23.912 156.607 23.912C157.051 23.912 157.429 23.792 157.741 23.552L158.497 25.532Z" fill="#3A3A3A"/>
<rect x="0.5" y="0.5" width="39" height="39" fill="white"/>
<rect x="0.5" y="0.5" width="39" height="39" fill="url(#paint0_linear)"/>
<rect x="0.5" y="0.5" width="39" height="39" stroke="white"/>
<rect width="30" height="28" transform="translate(5 6)" fill="white"/>
<rect width="30" height="28" transform="translate(5 6)" fill="url(#paint1_linear)"/>
<path d="M17.9157 29.1724C22.7259 29.1724 26.6253 25.2819 26.6253 20.4828C26.6253 15.6836 22.7259 11.7931 17.9157 11.7931C13.1054 11.7931 9.20599 15.6836 9.20599 20.4828C9.20599 25.2819 13.1054 29.1724 17.9157 29.1724Z" stroke="#FDCA5B" stroke-width="2"/>
<path d="M20.3854 19.5589C20.3407 19.4542 20.2415 19.3868 20.1318 19.3868C19.8147 19.3868 18.0437 19.3868 18.0437 19.3868L18.9027 17.0136C18.9349 16.9244 18.9232 16.8243 18.8714 16.7459C18.8196 16.6675 18.7343 16.6207 18.643 16.6207H16.5772C16.4618 16.6207 16.3585 16.6953 16.3176 16.8082L15.008 20.4267C14.9758 20.5159 14.9874 20.6159 15.0393 20.6943C15.0911 20.7727 15.1764 20.8195 15.2676 20.8195L17.585 20.805L16.3606 24.2097C16.3445 24.2546 16.3612 24.3053 16.4005 24.3302C16.4398 24.3553 16.4905 24.3474 16.5213 24.3117L20.3383 19.871C20.4115 19.7858 20.43 19.6635 20.3854 19.5589Z" fill="#FDCA5B"/>
<path d="M34.0323 21.4483C34.5667 21.4483 35 21.016 35 20.4828C35 19.9495 34.5667 19.5172 34.0323 19.5172H27.2581C26.7236 19.5172 26.2903 19.9495 26.2903 20.4828C26.2903 21.016 26.7236 21.4483 27.2581 21.4483H34.0323Z" fill="#FDCA5B"/>
<path d="M9.20596 21.4483C9.74043 21.4483 10.1737 21.016 10.1737 20.4828C10.1737 19.9495 9.74043 19.5172 9.20596 19.5172H7.27048C6.73601 19.5172 6.30274 19.9495 6.30274 20.4828C6.30274 21.016 6.73601 21.4483 7.27048 21.4483H9.20596Z" fill="#FDCA5B"/>
<path d="M16.9479 31.1035C16.9479 31.6367 17.3812 32.069 17.9157 32.069C18.4502 32.069 18.8834 31.6367 18.8834 31.1035V29.1724C18.8834 28.6392 18.4502 28.2069 17.9157 28.2069C17.3812 28.2069 16.9479 28.6392 16.9479 29.1724V31.1035Z" fill="#FDCA5B"/>
<path d="M16.6129 11.7931C16.6129 12.3263 17.0462 12.7586 17.5807 12.7586C18.1151 12.7586 18.5484 12.3263 18.5484 11.7931V6.96552C18.5484 6.43228 18.1151 6 17.5807 6C17.0462 6 16.6129 6.43228 16.6129 6.96552V11.7931Z" fill="#FDCA5B"/>
<path d="M7.71445 29.295C7.33652 29.6721 7.33652 30.2834 7.71445 30.6605C8.09237 31.0375 8.70511 31.0375 9.08304 30.6605L12.4413 27.3099C12.8192 26.9329 12.8192 26.3216 12.4413 25.9445C12.0633 25.5674 11.4506 25.5674 11.0727 25.9445L7.71445 29.295Z" fill="#FDCA5B"/>
<path d="M23.39 13.6555C23.0121 14.0325 23.0121 14.6439 23.39 15.0209C23.7679 15.398 24.3807 15.398 24.7586 15.0209L26.1272 13.6555C26.5051 13.2784 26.5051 12.6671 26.1272 12.29C25.7493 11.913 25.1365 11.913 24.7586 12.29L23.39 13.6555Z" fill="#FDCA5B"/>
<path d="M7.05289 8.21383C6.67496 7.83677 6.06222 7.83677 5.6843 8.21383C5.30637 8.59089 5.30637 9.20222 5.6843 9.57928L11.0727 14.9553C11.4506 15.3323 12.0634 15.3323 12.4413 14.9553C12.8192 14.5782 12.8192 13.9669 12.4413 13.5898L7.05289 8.21383Z" fill="#FDCA5B"/>
<path d="M24.7586 25.9446C24.3807 25.5675 23.7679 25.5675 23.39 25.9446C23.0121 26.3216 23.0121 26.933 23.39 27.31L25.2154 29.1313C25.5934 29.5083 26.2061 29.5083 26.584 29.1313C26.962 28.7542 26.962 28.1429 26.584 27.7658L24.7586 25.9446Z" fill="#FDCA5B"/>
<path d="M7.75775 23.8028C7.26699 24.014 7.04075 24.5821 7.25244 25.0718C7.46413 25.5614 8.03358 25.7871 8.52434 25.5759L10.3015 24.8111C10.7923 24.5999 11.0185 24.0317 10.8068 23.5421C10.5951 23.0525 10.0257 22.8267 9.53494 23.0379L7.75775 23.8028Z" fill="#FDCA5B"/>
<path d="M25.5297 16.1544C25.039 16.3656 24.8128 16.9338 25.0244 17.4234C25.2361 17.913 25.8056 18.1387 26.2963 17.9275L31.2529 15.7944C31.7437 15.5832 31.9699 15.0151 31.7582 14.5255C31.5466 14.0358 30.9771 13.8101 30.4863 14.0213L25.5297 16.1544Z" fill="#FDCA5B"/>
<path d="M14.588 10.3482C14.3763 9.85861 13.8069 9.6329 13.3161 9.8441C12.8253 10.0553 12.5991 10.6234 12.8108 11.1131L13.5774 12.8862C13.7891 13.3758 14.3585 13.6015 14.8493 13.3903C15.34 13.1791 15.5663 12.611 15.3546 12.1214L14.588 10.3482Z" fill="#FDCA5B"/>
<path d="M22.6444 28.3286C22.4327 27.839 21.8632 27.6133 21.3725 27.8245C20.8817 28.0357 20.6555 28.6038 20.8672 29.0935L22.4003 32.6397C22.612 33.1293 23.1815 33.355 23.6722 33.1438C24.163 32.9326 24.3892 32.3645 24.1775 31.8749L22.6444 28.3286Z" fill="#FDCA5B"/>
<path d="M12.3299 31.3973C12.1232 31.889 12.3552 32.4548 12.8481 32.6611C13.341 32.8673 13.9081 32.6358 14.1148 32.1441L15.4395 28.9927C15.6462 28.5009 15.4143 27.9351 14.9214 27.7289C14.4285 27.5227 13.8614 27.7541 13.6547 28.2458L12.3299 31.3973Z" fill="#FDCA5B"/>
<path d="M20.3918 12.0959C20.185 12.5876 20.417 13.1535 20.9099 13.3597C21.4028 13.5659 21.9699 13.3345 22.1766 12.8427L22.9252 11.062C23.1319 10.5702 22.8999 10.0044 22.407 9.79818C21.9142 9.59194 21.347 9.82339 21.1403 10.3151L20.3918 12.0959Z" fill="#FDCA5B"/>
<path d="M6.6474 14.7208C6.15453 14.5146 5.5874 14.7461 5.38069 15.2378C5.17398 15.7295 5.40597 16.2954 5.89884 16.5016L9.50945 18.0124C10.0023 18.2186 10.5695 17.9872 10.7762 17.4954C10.9829 17.0037 10.7509 16.4378 10.258 16.2316L6.6474 14.7208Z" fill="#FDCA5B"/>
<path d="M26.3218 22.9532C25.8289 22.747 25.2618 22.9784 25.0551 23.4702C24.8484 23.9619 25.0803 24.5278 25.5732 24.734L27.3581 25.4808C27.851 25.6871 28.4181 25.4556 28.6248 24.9639C28.8315 24.4721 28.5995 23.9063 28.1067 23.7001L26.3218 22.9532Z" fill="#FDCA5B"/>
<path d="M40.7704 52.488V53H36.8104V47.4H40.6504V47.912H37.4024V49.904H40.2984V50.408H37.4024V52.488H40.7704ZM44.186 48.76C44.714 48.76 45.1327 48.9147 45.442 49.224C45.7567 49.528 45.914 49.9733 45.914 50.56V53H45.346V50.616C45.346 50.1787 45.2367 49.8453 45.018 49.616C44.7993 49.3867 44.4873 49.272 44.082 49.272C43.6287 49.272 43.2687 49.408 43.002 49.68C42.7407 49.9467 42.61 50.3173 42.61 50.792V53H42.042V48.792H42.586V49.568C42.7407 49.312 42.954 49.1147 43.226 48.976C43.5033 48.832 43.8233 48.76 44.186 48.76ZM51.1357 51.072H47.6157C47.6477 51.5093 47.8157 51.864 48.1197 52.136C48.4237 52.4027 48.8077 52.536 49.2717 52.536C49.533 52.536 49.773 52.4907 49.9917 52.4C50.2104 52.304 50.3997 52.1653 50.5597 51.984L50.8797 52.352C50.693 52.576 50.4584 52.7467 50.1757 52.864C49.8984 52.9813 49.5917 53.04 49.2557 53.04C48.8237 53.04 48.4397 52.9493 48.1037 52.768C47.773 52.5813 47.5144 52.3253 47.3277 52C47.141 51.6747 47.0477 51.3067 47.0477 50.896C47.0477 50.4853 47.1357 50.1173 47.3117 49.792C47.493 49.4667 47.7384 49.2133 48.0477 49.032C48.3624 48.8507 48.7144 48.76 49.1037 48.76C49.493 48.76 49.8424 48.8507 50.1517 49.032C50.461 49.2133 50.7037 49.4667 50.8797 49.792C51.0557 50.112 51.1437 50.48 51.1437 50.896L51.1357 51.072ZM49.1037 49.248C48.6984 49.248 48.357 49.3787 48.0797 49.64C47.8077 49.896 47.653 50.232 47.6157 50.648H50.5997C50.5624 50.232 50.405 49.896 50.1277 49.64C49.8557 49.3787 49.5144 49.248 49.1037 49.248ZM52.8438 49.616C52.9771 49.3333 53.1745 49.12 53.4358 48.976C53.7025 48.832 54.0305 48.76 54.4198 48.76V49.312L54.2838 49.304C53.8411 49.304 53.4945 49.44 53.2438 49.712C52.9931 49.984 52.8678 50.3653 52.8678 50.856V53H52.2998V48.792H52.8438V49.616ZM59.3052 48.792V52.488C59.3052 53.2027 59.1292 53.7307 58.7772 54.072C58.4305 54.4187 57.9052 54.592 57.2012 54.592C56.8119 54.592 56.4412 54.5333 56.0892 54.416C55.7425 54.304 55.4599 54.1467 55.2412 53.944L55.5292 53.512C55.7319 53.6933 55.9772 53.8347 56.2652 53.936C56.5585 54.0373 56.8652 54.088 57.1852 54.088C57.7185 54.088 58.1105 53.9627 58.3612 53.712C58.6119 53.4667 58.7372 53.0827 58.7372 52.56V52.024C58.5612 52.2907 58.3292 52.4933 58.0412 52.632C57.7585 52.7707 57.4439 52.84 57.0972 52.84C56.7025 52.84 56.3425 52.7547 56.0172 52.584C55.6972 52.408 55.4439 52.1653 55.2572 51.856C55.0759 51.5413 54.9852 51.1867 54.9852 50.792C54.9852 50.3973 55.0759 50.0453 55.2572 49.736C55.4439 49.4267 55.6972 49.1867 56.0172 49.016C56.3372 48.8453 56.6972 48.76 57.0972 48.76C57.4545 48.76 57.7772 48.832 58.0652 48.976C58.3532 49.12 58.5852 49.328 58.7612 49.6V48.792H59.3052ZM57.1532 52.336C57.4572 52.336 57.7319 52.272 57.9772 52.144C58.2225 52.0107 58.4119 51.8267 58.5452 51.592C58.6839 51.3573 58.7532 51.0907 58.7532 50.792C58.7532 50.4933 58.6839 50.2293 58.5452 50C58.4119 49.7653 58.2225 49.584 57.9772 49.456C57.7372 49.3227 57.4625 49.256 57.1532 49.256C56.8492 49.256 56.5745 49.32 56.3292 49.448C56.0892 49.576 55.8999 49.7573 55.7612 49.992C55.6279 50.2267 55.5612 50.4933 55.5612 50.792C55.5612 51.0907 55.6279 51.3573 55.7612 51.592C55.8999 51.8267 56.0892 52.0107 56.3292 52.144C56.5745 52.272 56.8492 52.336 57.1532 52.336ZM60.8936 48.792H61.4616V53H60.8936V48.792ZM61.1816 47.872C61.0642 47.872 60.9656 47.832 60.8856 47.752C60.8056 47.672 60.7656 47.576 60.7656 47.464C60.7656 47.3573 60.8056 47.264 60.8856 47.184C60.9656 47.104 61.0642 47.064 61.1816 47.064C61.2989 47.064 61.3976 47.104 61.4776 47.184C61.5576 47.2587 61.5976 47.3493 61.5976 47.456C61.5976 47.5733 61.5576 47.672 61.4776 47.752C61.3976 47.832 61.2989 47.872 61.1816 47.872ZM64.514 48.76C65.0633 48.76 65.4847 48.8987 65.778 49.176C66.0713 49.448 66.218 49.8533 66.218 50.392V53H65.674V52.344C65.546 52.5627 65.3567 52.7333 65.106 52.856C64.8607 52.9787 64.5673 53.04 64.226 53.04C63.7567 53.04 63.3833 52.928 63.106 52.704C62.8287 52.48 62.69 52.184 62.69 51.816C62.69 51.4587 62.818 51.1707 63.074 50.952C63.3353 50.7333 63.7487 50.624 64.314 50.624H65.65V50.368C65.65 50.0053 65.5487 49.7307 65.346 49.544C65.1433 49.352 64.8473 49.256 64.458 49.256C64.1913 49.256 63.9353 49.3013 63.69 49.392C63.4447 49.4773 63.234 49.5973 63.058 49.752L62.802 49.328C63.0153 49.1467 63.2713 49.008 63.57 48.912C63.8687 48.8107 64.1833 48.76 64.514 48.76ZM64.314 52.592C64.634 52.592 64.9087 52.52 65.138 52.376C65.3673 52.2267 65.538 52.0133 65.65 51.736V51.048H64.33C63.61 51.048 63.25 51.2987 63.25 51.8C63.25 52.0453 63.3433 52.24 63.53 52.384C63.7167 52.5227 63.978 52.592 64.314 52.592ZM73.5185 51.072H69.9985C70.0305 51.5093 70.1985 51.864 70.5025 52.136C70.8065 52.4027 71.1905 52.536 71.6545 52.536C71.9158 52.536 72.1558 52.4907 72.3745 52.4C72.5932 52.304 72.7825 52.1653 72.9425 51.984L73.2625 52.352C73.0758 52.576 72.8412 52.7467 72.5585 52.864C72.2812 52.9813 71.9745 53.04 71.6385 53.04C71.2065 53.04 70.8225 52.9493 70.4865 52.768C70.1558 52.5813 69.8972 52.3253 69.7105 52C69.5238 51.6747 69.4305 51.3067 69.4305 50.896C69.4305 50.4853 69.5185 50.1173 69.6945 49.792C69.8758 49.4667 70.1212 49.2133 70.4305 49.032C70.7452 48.8507 71.0972 48.76 71.4865 48.76C71.8758 48.76 72.2252 48.8507 72.5345 49.032C72.8438 49.2133 73.0865 49.4667 73.2625 49.792C73.4385 50.112 73.5265 50.48 73.5265 50.896L73.5185 51.072ZM71.4865 49.248C71.0812 49.248 70.7398 49.3787 70.4625 49.64C70.1905 49.896 70.0358 50.232 69.9985 50.648H72.9825C72.9452 50.232 72.7878 49.896 72.5105 49.64C72.2385 49.3787 71.8972 49.248 71.4865 49.248ZM76.7764 48.792H77.3444V53H76.7764V48.792ZM77.6724 48.136L77.0644 47.488L76.4564 48.136H75.9444L76.7844 47.144H77.3444L78.1844 48.136H77.6724ZM81.0688 48.76C81.5968 48.76 82.0155 48.9147 82.3248 49.224C82.6395 49.528 82.7968 49.9733 82.7968 50.56V53H82.2288V50.616C82.2288 50.1787 82.1195 49.8453 81.9008 49.616C81.6821 49.3867 81.3701 49.272 80.9648 49.272C80.5115 49.272 80.1515 49.408 79.8848 49.68C79.6235 49.9467 79.4928 50.3173 79.4928 50.792V53H78.9248V48.792H79.4688V49.568C79.6235 49.312 79.8368 49.1147 80.1088 48.976C80.3861 48.832 80.7061 48.76 81.0688 48.76ZM91.6806 48.76C92.2086 48.76 92.622 48.912 92.9206 49.216C93.2246 49.52 93.3766 49.968 93.3766 50.56V53H92.8086V50.616C92.8086 50.1787 92.702 49.8453 92.4886 49.616C92.2806 49.3867 91.9846 49.272 91.6006 49.272C91.1633 49.272 90.8193 49.408 90.5686 49.68C90.318 49.9467 90.1926 50.3173 90.1926 50.792V53H89.6246V50.616C89.6246 50.1787 89.518 49.8453 89.3046 49.616C89.0966 49.3867 88.798 49.272 88.4086 49.272C87.9766 49.272 87.6326 49.408 87.3766 49.68C87.126 49.9467 87.0006 50.3173 87.0006 50.792V53H86.4326V48.792H86.9766V49.56C87.126 49.304 87.334 49.1067 87.6006 48.968C87.8673 48.8293 88.174 48.76 88.5206 48.76C88.8726 48.76 89.1766 48.8347 89.4326 48.984C89.694 49.1333 89.8886 49.3547 90.0166 49.648C90.1713 49.3707 90.3926 49.1547 90.6806 49C90.974 48.84 91.3073 48.76 91.6806 48.76ZM96.389 48.76C96.9383 48.76 97.3597 48.8987 97.653 49.176C97.9463 49.448 98.093 49.8533 98.093 50.392V53H97.549V52.344C97.421 52.5627 97.2317 52.7333 96.981 52.856C96.7357 52.9787 96.4423 53.04 96.101 53.04C95.6317 53.04 95.2583 52.928 94.981 52.704C94.7037 52.48 94.565 52.184 94.565 51.816C94.565 51.4587 94.693 51.1707 94.949 50.952C95.2103 50.7333 95.6237 50.624 96.189 50.624H97.525V50.368C97.525 50.0053 97.4237 49.7307 97.221 49.544C97.0183 49.352 96.7223 49.256 96.333 49.256C96.0663 49.256 95.8103 49.3013 95.565 49.392C95.3197 49.4773 95.109 49.5973 94.933 49.752L94.677 49.328C94.8903 49.1467 95.1463 49.008 95.445 48.912C95.7437 48.8107 96.0583 48.76 96.389 48.76ZM96.189 52.592C96.509 52.592 96.7837 52.52 97.013 52.376C97.2423 52.2267 97.413 52.0133 97.525 51.736V51.048H96.205C95.485 51.048 95.125 51.2987 95.125 51.8C95.125 52.0453 95.2183 52.24 95.405 52.384C95.5917 52.5227 95.853 52.592 96.189 52.592ZM97.197 48.136L96.405 47.472L95.613 48.136H95.085L96.117 47.144H96.693L97.725 48.136H97.197ZM99.6358 48.792H100.204V53H99.6358V48.792ZM99.9238 47.872C99.8064 47.872 99.7078 47.832 99.6278 47.752C99.5478 47.672 99.5078 47.576 99.5078 47.464C99.5078 47.3573 99.5478 47.264 99.6278 47.184C99.7078 47.104 99.8064 47.064 99.9238 47.064C100.041 47.064 100.14 47.104 100.22 47.184C100.3 47.2587 100.34 47.3493 100.34 47.456C100.34 47.5733 100.3 47.672 100.22 47.752C100.14 47.832 100.041 47.872 99.9238 47.872ZM103.928 48.76C104.456 48.76 104.875 48.9147 105.184 49.224C105.499 49.528 105.656 49.9733 105.656 50.56V53H105.088V50.616C105.088 50.1787 104.979 49.8453 104.76 49.616C104.542 49.3867 104.23 49.272 103.824 49.272C103.371 49.272 103.011 49.408 102.744 49.68C102.483 49.9467 102.352 50.3173 102.352 50.792V53H101.784V48.792H102.328V49.568C102.483 49.312 102.696 49.1147 102.968 48.976C103.246 48.832 103.566 48.76 103.928 48.76ZM107.198 48.792H107.766V53H107.198V48.792ZM107.486 47.872C107.369 47.872 107.27 47.832 107.19 47.752C107.11 47.672 107.07 47.576 107.07 47.464C107.07 47.3573 107.11 47.264 107.19 47.184C107.27 47.104 107.369 47.064 107.486 47.064C107.604 47.064 107.702 47.104 107.782 47.184C107.862 47.2587 107.902 47.3493 107.902 47.456C107.902 47.5733 107.862 47.672 107.782 47.752C107.702 47.832 107.604 47.872 107.486 47.872ZM109.347 47.064H109.915V53H109.347V47.064ZM115.159 51.072H111.639C111.671 51.5093 111.839 51.864 112.143 52.136C112.447 52.4027 112.831 52.536 113.295 52.536C113.556 52.536 113.796 52.4907 114.015 52.4C114.234 52.304 114.423 52.1653 114.583 51.984L114.903 52.352C114.716 52.576 114.482 52.7467 114.199 52.864C113.922 52.9813 113.615 53.04 113.279 53.04C112.847 53.04 112.463 52.9493 112.127 52.768C111.796 52.5813 111.538 52.3253 111.351 52C111.164 51.6747 111.071 51.3067 111.071 50.896C111.071 50.4853 111.159 50.1173 111.335 49.792C111.516 49.4667 111.762 49.2133 112.071 49.032C112.386 48.8507 112.738 48.76 113.127 48.76C113.516 48.76 113.866 48.8507 114.175 49.032C114.484 49.2133 114.727 49.4667 114.903 49.792C115.079 50.112 115.167 50.48 115.167 50.896L115.159 51.072ZM113.127 49.248C112.722 49.248 112.38 49.3787 112.103 49.64C111.831 49.896 111.676 50.232 111.639 50.648H114.623C114.586 50.232 114.428 49.896 114.151 49.64C113.879 49.3787 113.538 49.248 113.127 49.248ZM120.561 48.76C121.089 48.76 121.508 48.9147 121.817 49.224C122.132 49.528 122.289 49.9733 122.289 50.56V53H121.721V50.616C121.721 50.1787 121.612 49.8453 121.393 49.616C121.174 49.3867 120.862 49.272 120.457 49.272C120.004 49.272 119.644 49.408 119.377 49.68C119.116 49.9467 118.985 50.3173 118.985 50.792V53H118.417V48.792H118.961V49.568C119.116 49.312 119.329 49.1147 119.601 48.976C119.878 48.832 120.198 48.76 120.561 48.76ZM125.567 53.04C125.161 53.04 124.796 52.9493 124.471 52.768C124.145 52.5813 123.889 52.3253 123.703 52C123.516 51.6747 123.423 51.3067 123.423 50.896C123.423 50.4853 123.516 50.1173 123.703 49.792C123.889 49.4667 124.145 49.2133 124.471 49.032C124.796 48.8507 125.161 48.76 125.567 48.76C125.972 48.76 126.337 48.8507 126.663 49.032C126.988 49.2133 127.241 49.4667 127.423 49.792C127.609 50.1173 127.703 50.4853 127.703 50.896C127.703 51.3067 127.609 51.6747 127.423 52C127.241 52.3253 126.988 52.5813 126.663 52.768C126.337 52.9493 125.972 53.04 125.567 53.04ZM125.567 52.536C125.865 52.536 126.132 52.4693 126.367 52.336C126.607 52.1973 126.793 52.0027 126.927 51.752C127.06 51.5013 127.127 51.216 127.127 50.896C127.127 50.576 127.06 50.2907 126.927 50.04C126.793 49.7893 126.607 49.5973 126.367 49.464C126.132 49.3253 125.865 49.256 125.567 49.256C125.268 49.256 124.999 49.3253 124.759 49.464C124.524 49.5973 124.337 49.7893 124.199 50.04C124.065 50.2907 123.999 50.576 123.999 50.896C123.999 51.216 124.065 51.5013 124.199 51.752C124.337 52.0027 124.524 52.1973 124.759 52.336C124.999 52.4693 125.268 52.536 125.567 52.536ZM130.311 48.76C130.86 48.76 131.282 48.8987 131.575 49.176C131.868 49.448 132.015 49.8533 132.015 50.392V53H131.471V52.344C131.343 52.5627 131.154 52.7333 130.903 52.856C130.658 52.9787 130.364 53.04 130.023 53.04C129.554 53.04 129.18 52.928 128.903 52.704C128.626 52.48 128.487 52.184 128.487 51.816C128.487 51.4587 128.615 51.1707 128.871 50.952C129.132 50.7333 129.546 50.624 130.111 50.624H131.447V50.368C131.447 50.0053 131.346 49.7307 131.143 49.544C130.94 49.352 130.644 49.256 130.255 49.256C129.988 49.256 129.732 49.3013 129.487 49.392C129.242 49.4773 129.031 49.5973 128.855 49.752L128.599 49.328C128.812 49.1467 129.068 49.008 129.367 48.912C129.666 48.8107 129.98 48.76 130.311 48.76ZM130.111 52.592C130.431 52.592 130.706 52.52 130.935 52.376C131.164 52.2267 131.335 52.0133 131.447 51.736V51.048H130.127C129.407 51.048 129.047 51.2987 129.047 51.8C129.047 52.0453 129.14 52.24 129.327 52.384C129.514 52.5227 129.775 52.592 130.111 52.592ZM134.686 53.04C134.344 53.04 134.016 52.992 133.702 52.896C133.392 52.7947 133.15 52.6693 132.974 52.52L133.23 52.072C133.406 52.2107 133.627 52.3253 133.894 52.416C134.16 52.5013 134.438 52.544 134.726 52.544C135.11 52.544 135.392 52.4853 135.574 52.368C135.76 52.2453 135.854 52.0747 135.854 51.856C135.854 51.7013 135.803 51.5813 135.702 51.496C135.6 51.4053 135.472 51.3387 135.318 51.296C135.163 51.248 134.958 51.2027 134.702 51.16C134.36 51.096 134.086 51.032 133.878 50.968C133.67 50.8987 133.491 50.784 133.342 50.624C133.198 50.464 133.126 50.2427 133.126 49.96C133.126 49.608 133.272 49.32 133.566 49.096C133.859 48.872 134.267 48.76 134.79 48.76C135.062 48.76 135.334 48.7973 135.606 48.872C135.878 48.9413 136.102 49.0347 136.278 49.152L136.03 49.608C135.683 49.368 135.27 49.248 134.79 49.248C134.427 49.248 134.152 49.312 133.966 49.44C133.784 49.568 133.694 49.736 133.694 49.944C133.694 50.104 133.744 50.232 133.846 50.328C133.952 50.424 134.083 50.496 134.238 50.544C134.392 50.5867 134.606 50.632 134.878 50.68C135.214 50.744 135.483 50.808 135.686 50.872C135.888 50.936 136.062 51.0453 136.206 51.2C136.35 51.3547 136.422 51.568 136.422 51.84C136.422 52.208 136.267 52.5013 135.958 52.72C135.654 52.9333 135.23 53.04 134.686 53.04ZM139.688 52.744C139.581 52.84 139.448 52.9147 139.288 52.968C139.133 53.016 138.97 53.04 138.8 53.04C138.405 53.04 138.101 52.9333 137.888 52.72C137.674 52.5067 137.568 52.2053 137.568 51.816V49.272H136.816V48.792H137.568V47.872H138.136V48.792H139.416V49.272H138.136V51.784C138.136 52.0347 138.197 52.2267 138.32 52.36C138.448 52.488 138.629 52.552 138.864 52.552C138.981 52.552 139.093 52.5333 139.2 52.496C139.312 52.4587 139.408 52.4053 139.488 52.336L139.688 52.744ZM141.266 49.616C141.399 49.3333 141.596 49.12 141.858 48.976C142.124 48.832 142.452 48.76 142.842 48.76V49.312L142.706 49.304C142.263 49.304 141.916 49.44 141.666 49.712C141.415 49.984 141.29 50.3653 141.29 50.856V53H140.722V48.792H141.266V49.616ZM147.495 51.072H143.975C144.007 51.5093 144.175 51.864 144.479 52.136C144.783 52.4027 145.167 52.536 145.631 52.536C145.892 52.536 146.132 52.4907 146.351 52.4C146.57 52.304 146.759 52.1653 146.919 51.984L147.239 52.352C147.052 52.576 146.818 52.7467 146.535 52.864C146.258 52.9813 145.951 53.04 145.615 53.04C145.183 53.04 144.799 52.9493 144.463 52.768C144.132 52.5813 143.874 52.3253 143.687 52C143.5 51.6747 143.407 51.3067 143.407 50.896C143.407 50.4853 143.495 50.1173 143.671 49.792C143.852 49.4667 144.098 49.2133 144.407 49.032C144.722 48.8507 145.074 48.76 145.463 48.76C145.852 48.76 146.202 48.8507 146.511 49.032C146.82 49.2133 147.063 49.4667 147.239 49.792C147.415 50.112 147.503 50.48 147.503 50.896L147.495 51.072ZM145.463 49.248C145.058 49.248 144.716 49.3787 144.439 49.64C144.167 49.896 144.012 50.232 143.975 50.648H146.959C146.922 50.232 146.764 49.896 146.487 49.64C146.215 49.3787 145.874 49.248 145.463 49.248ZM148.571 47.4H149.243L149.123 51.32H148.683L148.571 47.4ZM148.907 53.04C148.79 53.04 148.689 53 148.603 52.92C148.523 52.8347 148.483 52.736 148.483 52.624C148.483 52.5067 148.523 52.4107 148.603 52.336C148.683 52.256 148.785 52.216 148.907 52.216C149.025 52.216 149.123 52.256 149.203 52.336C149.283 52.4107 149.323 52.5067 149.323 52.624C149.323 52.736 149.283 52.8347 149.203 52.92C149.123 53 149.025 53.04 148.907 53.04Z" fill="#3A3A3A"/>
<defs>
<linearGradient id="paint0_linear" x1="20" y1="0" x2="20" y2="40" gradientUnits="userSpaceOnUse">
<stop stop-color="white"/>
<stop offset="1" stop-color="white" stop-opacity="0"/>
</linearGradient>
<linearGradient id="paint1_linear" x1="15" y1="0" x2="15" y2="28" gradientUnits="userSpaceOnUse">
<stop stop-color="white"/>
<stop offset="1" stop-color="white" stop-opacity="0"/>
</linearGradient>
</defs>
</svg>
