<svg width="167" height="55" viewBox="0 0 167 55" fill="none" xmlns="http://www.w3.org/2000/svg">
<rect width="127" height="40" transform="translate(40)" fill="white"/>
<path d="M59.25 23.66V26H49.494V13.4H59.016V15.74H52.392V18.476H58.242V20.744H52.392V23.66H59.25ZM61.3722 12.644H64.1802V26H61.3722V12.644ZM76.2722 21.194C76.2722 21.23 76.2542 21.482 76.2182 21.95H68.8922C69.0242 22.55 69.3362 23.024 69.8282 23.372C70.3202 23.72 70.9322 23.894 71.6642 23.894C72.1682 23.894 72.6122 23.822 72.9962 23.678C73.3922 23.522 73.7582 23.282 74.0942 22.958L75.5882 24.578C74.6762 25.622 73.3442 26.144 71.5922 26.144C70.5002 26.144 69.5342 25.934 68.6942 25.514C67.8542 25.082 67.2062 24.488 66.7502 23.732C66.2942 22.976 66.0662 22.118 66.0662 21.158C66.0662 20.21 66.2882 19.358 66.7322 18.602C67.1882 17.834 67.8062 17.24 68.5862 16.82C69.3782 16.388 70.2602 16.172 71.2322 16.172C72.1802 16.172 73.0382 16.376 73.8062 16.784C74.5742 17.192 75.1742 17.78 75.6062 18.548C76.0502 19.304 76.2722 20.186 76.2722 21.194ZM71.2502 18.296C70.6142 18.296 70.0802 18.476 69.6482 18.836C69.2162 19.196 68.9522 19.688 68.8562 20.312H73.6262C73.5302 19.7 73.2662 19.214 72.8342 18.854C72.4022 18.482 71.8742 18.296 71.2502 18.296ZM82.8217 26.144C81.7897 26.144 80.8597 25.934 80.0317 25.514C79.2157 25.082 78.5737 24.488 78.1057 23.732C77.6497 22.976 77.4217 22.118 77.4217 21.158C77.4217 20.198 77.6497 19.34 78.1057 18.584C78.5737 17.828 79.2157 17.24 80.0317 16.82C80.8597 16.388 81.7897 16.172 82.8217 16.172C83.8417 16.172 84.7297 16.388 85.4857 16.82C86.2537 17.24 86.8117 17.846 87.1597 18.638L84.9817 19.808C84.4777 18.92 83.7517 18.476 82.8037 18.476C82.0717 18.476 81.4657 18.716 80.9857 19.196C80.5057 19.676 80.2657 20.33 80.2657 21.158C80.2657 21.986 80.5057 22.64 80.9857 23.12C81.4657 23.6 82.0717 23.84 82.8037 23.84C83.7637 23.84 84.4897 23.396 84.9817 22.508L87.1597 23.696C86.8117 24.464 86.2537 25.064 85.4857 25.496C84.7297 25.928 83.8417 26.144 82.8217 26.144ZM95.1631 25.532C94.8871 25.736 94.5451 25.892 94.1371 26C93.7411 26.096 93.3211 26.144 92.8771 26.144C91.7251 26.144 90.8311 25.85 90.1951 25.262C89.5711 24.674 89.2591 23.81 89.2591 22.67V18.692H87.7651V16.532H89.2591V14.174H92.0671V16.532H94.4791V18.692H92.0671V22.634C92.0671 23.042 92.1691 23.36 92.3731 23.588C92.5891 23.804 92.8891 23.912 93.2731 23.912C93.7171 23.912 94.0951 23.792 94.4071 23.552L95.1631 25.532ZM99.4214 17.594C99.7574 17.126 100.207 16.772 100.771 16.532C101.347 16.292 102.007 16.172 102.751 16.172V18.764C102.439 18.74 102.229 18.728 102.121 18.728C101.317 18.728 100.687 18.956 100.231 19.412C99.7754 19.856 99.5474 20.528 99.5474 21.428V26H96.7394V16.316H99.4214V17.594ZM108.941 26.144C107.921 26.144 107.003 25.934 106.187 25.514C105.383 25.082 104.753 24.488 104.297 23.732C103.841 22.976 103.613 22.118 103.613 21.158C103.613 20.198 103.841 19.34 104.297 18.584C104.753 17.828 105.383 17.24 106.187 16.82C107.003 16.388 107.921 16.172 108.941 16.172C109.961 16.172 110.873 16.388 111.677 16.82C112.481 17.24 113.111 17.828 113.567 18.584C114.023 19.34 114.251 20.198 114.251 21.158C114.251 22.118 114.023 22.976 113.567 23.732C113.111 24.488 112.481 25.082 111.677 25.514C110.873 25.934 109.961 26.144 108.941 26.144ZM108.941 23.84C109.661 23.84 110.249 23.6 110.705 23.12C111.173 22.628 111.407 21.974 111.407 21.158C111.407 20.342 111.173 19.694 110.705 19.214C110.249 18.722 109.661 18.476 108.941 18.476C108.221 18.476 107.627 18.722 107.159 19.214C106.691 19.694 106.457 20.342 106.457 21.158C106.457 21.974 106.691 22.628 107.159 23.12C107.627 23.6 108.221 23.84 108.941 23.84ZM119.386 26.144C118.582 26.144 117.796 26.048 117.028 25.856C116.26 25.652 115.648 25.4 115.192 25.1L116.128 23.084C116.56 23.36 117.082 23.588 117.694 23.768C118.306 23.936 118.906 24.02 119.494 24.02C120.682 24.02 121.276 23.726 121.276 23.138C121.276 22.862 121.114 22.664 120.79 22.544C120.466 22.424 119.968 22.322 119.296 22.238C118.504 22.118 117.85 21.98 117.334 21.824C116.818 21.668 116.368 21.392 115.984 20.996C115.612 20.6 115.426 20.036 115.426 19.304C115.426 18.692 115.6 18.152 115.948 17.684C116.308 17.204 116.824 16.832 117.496 16.568C118.18 16.304 118.984 16.172 119.908 16.172C120.592 16.172 121.27 16.25 121.942 16.406C122.626 16.55 123.19 16.754 123.634 17.018L122.698 19.016C121.846 18.536 120.916 18.296 119.908 18.296C119.308 18.296 118.858 18.38 118.558 18.548C118.258 18.716 118.108 18.932 118.108 19.196C118.108 19.496 118.27 19.706 118.594 19.826C118.918 19.946 119.434 20.06 120.142 20.168C120.934 20.3 121.582 20.444 122.086 20.6C122.59 20.744 123.028 21.014 123.4 21.41C123.772 21.806 123.958 22.358 123.958 23.066C123.958 23.666 123.778 24.2 123.418 24.668C123.058 25.136 122.53 25.502 121.834 25.766C121.15 26.018 120.334 26.144 119.386 26.144ZM131.937 25.532C131.661 25.736 131.319 25.892 130.911 26C130.515 26.096 130.095 26.144 129.651 26.144C128.499 26.144 127.605 25.85 126.969 25.262C126.345 24.674 126.033 23.81 126.033 22.67V18.692H124.539V16.532H126.033V14.174H128.841V16.532H131.253V18.692H128.841V22.634C128.841 23.042 128.943 23.36 129.147 23.588C129.363 23.804 129.663 23.912 130.047 23.912C130.491 23.912 130.869 23.792 131.181 23.552L131.937 25.532ZM136.195 17.594C136.531 17.126 136.981 16.772 137.545 16.532C138.121 16.292 138.781 16.172 139.525 16.172V18.764C139.213 18.74 139.003 18.728 138.895 18.728C138.091 18.728 137.461 18.956 137.005 19.412C136.549 19.856 136.321 20.528 136.321 21.428V26H133.513V16.316H136.195V17.594ZM145.048 16.172C146.548 16.172 147.7 16.532 148.504 17.252C149.308 17.96 149.71 19.034 149.71 20.474V26H147.082V24.794C146.554 25.694 145.57 26.144 144.13 26.144C143.386 26.144 142.738 26.018 142.186 25.766C141.646 25.514 141.232 25.166 140.944 24.722C140.656 24.278 140.512 23.774 140.512 23.21C140.512 22.31 140.848 21.602 141.52 21.086C142.204 20.57 143.254 20.312 144.67 20.312H146.902C146.902 19.7 146.716 19.232 146.344 18.908C145.972 18.572 145.414 18.404 144.67 18.404C144.154 18.404 143.644 18.488 143.14 18.656C142.648 18.812 142.228 19.028 141.88 19.304L140.872 17.342C141.4 16.97 142.03 16.682 142.762 16.478C143.506 16.274 144.268 16.172 145.048 16.172ZM144.832 24.254C145.312 24.254 145.738 24.146 146.11 23.93C146.482 23.702 146.746 23.372 146.902 22.94V21.95H144.976C143.824 21.95 143.248 22.328 143.248 23.084C143.248 23.444 143.386 23.732 143.662 23.948C143.95 24.152 144.34 24.254 144.832 24.254ZM158.497 25.532C158.221 25.736 157.879 25.892 157.471 26C157.075 26.096 156.655 26.144 156.211 26.144C155.059 26.144 154.165 25.85 153.529 25.262C152.905 24.674 152.593 23.81 152.593 22.67V18.692H151.099V16.532H152.593V14.174H155.401V16.532H157.813V18.692H155.401V22.634C155.401 23.042 155.503 23.36 155.707 23.588C155.923 23.804 156.223 23.912 156.607 23.912C157.051 23.912 157.429 23.792 157.741 23.552L158.497 25.532Z" fill="#3A3A3A"/>
<rect x="0.5" y="0.5" width="39" height="39" stroke="white"/>
<path d="M17.9157 29.1724C22.7259 29.1724 26.6253 25.2819 26.6253 20.4828C26.6253 15.6836 22.7259 11.7931 17.9157 11.7931C13.1054 11.7931 9.20599 15.6836 9.20599 20.4828C9.20599 25.2819 13.1054 29.1724 17.9157 29.1724Z" stroke="#FDCA5B" stroke-width="2"/>
<path d="M20.3854 19.5589C20.3407 19.4542 20.2415 19.3868 20.1318 19.3868C19.8147 19.3868 18.0437 19.3868 18.0437 19.3868L18.9027 17.0136C18.9349 16.9244 18.9232 16.8243 18.8714 16.7459C18.8196 16.6675 18.7343 16.6207 18.643 16.6207H16.5772C16.4618 16.6207 16.3585 16.6953 16.3176 16.8082L15.008 20.4267C14.9758 20.5159 14.9874 20.6159 15.0393 20.6943C15.0911 20.7727 15.1764 20.8195 15.2676 20.8195L17.585 20.805L16.3606 24.2097C16.3445 24.2546 16.3612 24.3053 16.4005 24.3302C16.4398 24.3553 16.4905 24.3474 16.5213 24.3117L20.3383 19.871C20.4115 19.7858 20.43 19.6635 20.3854 19.5589Z" fill="#FDCA5B"/>
<path d="M34.0323 21.4483C34.5667 21.4483 35 21.016 35 20.4828C35 19.9495 34.5667 19.5172 34.0323 19.5172H27.2581C26.7236 19.5172 26.2903 19.9495 26.2903 20.4828C26.2903 21.016 26.7236 21.4483 27.2581 21.4483H34.0323Z" fill="#FDCA5B"/>
<path d="M9.20596 21.4483C9.74043 21.4483 10.1737 21.016 10.1737 20.4828C10.1737 19.9495 9.74043 19.5172 9.20596 19.5172H7.27048C6.73601 19.5172 6.30274 19.9495 6.30274 20.4828C6.30274 21.016 6.73601 21.4483 7.27048 21.4483H9.20596Z" fill="#FDCA5B"/>
<path d="M16.9479 31.1035C16.9479 31.6367 17.3812 32.069 17.9157 32.069C18.4502 32.069 18.8834 31.6367 18.8834 31.1035V29.1724C18.8834 28.6392 18.4502 28.2069 17.9157 28.2069C17.3812 28.2069 16.9479 28.6392 16.9479 29.1724V31.1035Z" fill="#FDCA5B"/>
<path d="M16.6129 11.7931C16.6129 12.3263 17.0462 12.7586 17.5807 12.7586C18.1151 12.7586 18.5484 12.3263 18.5484 11.7931V6.96552C18.5484 6.43228 18.1151 6 17.5807 6C17.0462 6 16.6129 6.43228 16.6129 6.96552V11.7931Z" fill="#FDCA5B"/>
<path d="M7.71445 29.295C7.33652 29.6721 7.33652 30.2834 7.71445 30.6605C8.09237 31.0375 8.70511 31.0375 9.08304 30.6605L12.4413 27.3099C12.8192 26.9329 12.8192 26.3216 12.4413 25.9445C12.0633 25.5674 11.4506 25.5674 11.0727 25.9445L7.71445 29.295Z" fill="#FDCA5B"/>
<path d="M23.39 13.6555C23.0121 14.0325 23.0121 14.6439 23.39 15.0209C23.7679 15.398 24.3807 15.398 24.7586 15.0209L26.1272 13.6555C26.5051 13.2784 26.5051 12.6671 26.1272 12.29C25.7493 11.913 25.1365 11.913 24.7586 12.29L23.39 13.6555Z" fill="#FDCA5B"/>
<path d="M7.05289 8.21383C6.67496 7.83677 6.06222 7.83677 5.6843 8.21383C5.30637 8.59089 5.30637 9.20222 5.6843 9.57928L11.0727 14.9553C11.4506 15.3323 12.0634 15.3323 12.4413 14.9553C12.8192 14.5782 12.8192 13.9669 12.4413 13.5898L7.05289 8.21383Z" fill="#FDCA5B"/>
<path d="M24.7586 25.9446C24.3807 25.5675 23.7679 25.5675 23.39 25.9446C23.0121 26.3216 23.0121 26.933 23.39 27.31L25.2154 29.1313C25.5934 29.5083 26.2061 29.5083 26.584 29.1313C26.962 28.7542 26.962 28.1429 26.584 27.7658L24.7586 25.9446Z" fill="#FDCA5B"/>
<path d="M7.75775 23.8028C7.26699 24.014 7.04075 24.5821 7.25244 25.0718C7.46413 25.5614 8.03358 25.7871 8.52434 25.5759L10.3015 24.8111C10.7923 24.5999 11.0185 24.0317 10.8068 23.5421C10.5951 23.0525 10.0257 22.8267 9.53494 23.0379L7.75775 23.8028Z" fill="#FDCA5B"/>
<path d="M25.5297 16.1544C25.039 16.3656 24.8128 16.9338 25.0244 17.4234C25.2361 17.913 25.8056 18.1387 26.2963 17.9275L31.2529 15.7944C31.7437 15.5832 31.9699 15.0151 31.7582 14.5255C31.5466 14.0358 30.9771 13.8101 30.4863 14.0213L25.5297 16.1544Z" fill="#FDCA5B"/>
<path d="M14.588 10.3482C14.3763 9.85861 13.8069 9.6329 13.3161 9.8441C12.8253 10.0553 12.5991 10.6234 12.8108 11.1131L13.5774 12.8862C13.7891 13.3758 14.3585 13.6015 14.8493 13.3903C15.34 13.1791 15.5663 12.611 15.3546 12.1214L14.588 10.3482Z" fill="#FDCA5B"/>
<path d="M22.6444 28.3286C22.4327 27.839 21.8632 27.6133 21.3725 27.8245C20.8817 28.0357 20.6555 28.6038 20.8672 29.0935L22.4003 32.6397C22.612 33.1293 23.1815 33.355 23.6722 33.1438C24.163 32.9326 24.3892 32.3645 24.1775 31.8749L22.6444 28.3286Z" fill="#FDCA5B"/>
<path d="M12.3299 31.3973C12.1232 31.889 12.3552 32.4548 12.8481 32.6611C13.341 32.8673 13.9081 32.6358 14.1148 32.1441L15.4395 28.9927C15.6462 28.5009 15.4143 27.9351 14.9214 27.7289C14.4285 27.5227 13.8614 27.7541 13.6547 28.2458L12.3299 31.3973Z" fill="#FDCA5B"/>
<path d="M20.3918 12.0959C20.185 12.5876 20.417 13.1535 20.9099 13.3597C21.4028 13.5659 21.9699 13.3345 22.1766 12.8427L22.9252 11.062C23.1319 10.5702 22.8999 10.0044 22.407 9.79818C21.9142 9.59194 21.347 9.82339 21.1403 10.3151L20.3918 12.0959Z" fill="#FDCA5B"/>
<path d="M6.6474 14.7208C6.15453 14.5146 5.5874 14.7461 5.38069 15.2378C5.17398 15.7295 5.40597 16.2954 5.89884 16.5016L9.50945 18.0124C10.0023 18.2186 10.5695 17.9872 10.7762 17.4954C10.9829 17.0037 10.7509 16.4378 10.258 16.2316L6.6474 14.7208Z" fill="#FDCA5B"/>
<path d="M26.3218 22.9532C25.8289 22.747 25.2618 22.9784 25.0551 23.4702C24.8484 23.9619 25.0803 24.5278 25.5732 24.734L27.3581 25.4808C27.851 25.6871 28.4181 25.4556 28.6248 24.9639C28.8315 24.4721 28.5995 23.9063 28.1067 23.7001L26.3218 22.9532Z" fill="#FDCA5B"/>
<path d="M32.6533 52.488V53H28.6933V47.4H32.5333V47.912H29.2853V49.904H32.1813V50.408H29.2853V52.488H32.6533ZM36.0688 48.76C36.5968 48.76 37.0155 48.9147 37.3248 49.224C37.6395 49.528 37.7968 49.9733 37.7968 50.56V53H37.2288V50.616C37.2288 50.1787 37.1195 49.8453 36.9008 49.616C36.6821 49.3867 36.3701 49.272 35.9648 49.272C35.5115 49.272 35.1515 49.408 34.8848 49.68C34.6235 49.9467 34.4928 50.3173 34.4928 50.792V53H33.9248V48.792H34.4688V49.568C34.6235 49.312 34.8368 49.1147 35.1088 48.976C35.3861 48.832 35.7061 48.76 36.0688 48.76ZM43.0185 51.072H39.4985C39.5305 51.5093 39.6985 51.864 40.0025 52.136C40.3065 52.4027 40.6905 52.536 41.1545 52.536C41.4158 52.536 41.6558 52.4907 41.8745 52.4C42.0932 52.304 42.2825 52.1653 42.4425 51.984L42.7625 52.352C42.5758 52.576 42.3412 52.7467 42.0585 52.864C41.7812 52.9813 41.4745 53.04 41.1385 53.04C40.7065 53.04 40.3225 52.9493 39.9865 52.768C39.6558 52.5813 39.3972 52.3253 39.2105 52C39.0238 51.6747 38.9305 51.3067 38.9305 50.896C38.9305 50.4853 39.0185 50.1173 39.1945 49.792C39.3758 49.4667 39.6212 49.2133 39.9305 49.032C40.2452 48.8507 40.5972 48.76 40.9865 48.76C41.3758 48.76 41.7252 48.8507 42.0345 49.032C42.3438 49.2133 42.5865 49.4667 42.7625 49.792C42.9385 50.112 43.0265 50.48 43.0265 50.896L43.0185 51.072ZM40.9865 49.248C40.5812 49.248 40.2398 49.3787 39.9625 49.64C39.6905 49.896 39.5358 50.232 39.4985 50.648H42.4825C42.4452 50.232 42.2878 49.896 42.0105 49.64C41.7385 49.3787 41.3972 49.248 40.9865 49.248ZM44.7266 49.616C44.86 49.3333 45.0573 49.12 45.3186 48.976C45.5853 48.832 45.9133 48.76 46.3026 48.76V49.312L46.1666 49.304C45.724 49.304 45.3773 49.44 45.1266 49.712C44.876 49.984 44.7506 50.3653 44.7506 50.856V53H44.1826V48.792H44.7266V49.616ZM51.188 48.792V52.488C51.188 53.2027 51.012 53.7307 50.66 54.072C50.3133 54.4187 49.788 54.592 49.084 54.592C48.6947 54.592 48.324 54.5333 47.972 54.416C47.6253 54.304 47.3427 54.1467 47.124 53.944L47.412 53.512C47.6147 53.6933 47.86 53.8347 48.148 53.936C48.4413 54.0373 48.748 54.088 49.068 54.088C49.6013 54.088 49.9933 53.9627 50.244 53.712C50.4947 53.4667 50.62 53.0827 50.62 52.56V52.024C50.444 52.2907 50.212 52.4933 49.924 52.632C49.6413 52.7707 49.3267 52.84 48.98 52.84C48.5853 52.84 48.2253 52.7547 47.9 52.584C47.58 52.408 47.3267 52.1653 47.14 51.856C46.9587 51.5413 46.868 51.1867 46.868 50.792C46.868 50.3973 46.9587 50.0453 47.14 49.736C47.3267 49.4267 47.58 49.1867 47.9 49.016C48.22 48.8453 48.58 48.76 48.98 48.76C49.3373 48.76 49.66 48.832 49.948 48.976C50.236 49.12 50.468 49.328 50.644 49.6V48.792H51.188ZM49.036 52.336C49.34 52.336 49.6147 52.272 49.86 52.144C50.1053 52.0107 50.2947 51.8267 50.428 51.592C50.5667 51.3573 50.636 51.0907 50.636 50.792C50.636 50.4933 50.5667 50.2293 50.428 50C50.2947 49.7653 50.1053 49.584 49.86 49.456C49.62 49.3227 49.3453 49.256 49.036 49.256C48.732 49.256 48.4573 49.32 48.212 49.448C47.972 49.576 47.7827 49.7573 47.644 49.992C47.5107 50.2267 47.444 50.4933 47.444 50.792C47.444 51.0907 47.5107 51.3573 47.644 51.592C47.7827 51.8267 47.972 52.0107 48.212 52.144C48.4573 52.272 48.732 52.336 49.036 52.336ZM52.7764 48.792H53.3444V53H52.7764V48.792ZM53.0644 47.872C52.947 47.872 52.8484 47.832 52.7684 47.752C52.6884 47.672 52.6484 47.576 52.6484 47.464C52.6484 47.3573 52.6884 47.264 52.7684 47.184C52.8484 47.104 52.947 47.064 53.0644 47.064C53.1817 47.064 53.2804 47.104 53.3604 47.184C53.4404 47.2587 53.4804 47.3493 53.4804 47.456C53.4804 47.5733 53.4404 47.672 53.3604 47.752C53.2804 47.832 53.1817 47.872 53.0644 47.872ZM56.3968 48.76C56.9461 48.76 57.3675 48.8987 57.6608 49.176C57.9541 49.448 58.1008 49.8533 58.1008 50.392V53H57.5568V52.344C57.4288 52.5627 57.2395 52.7333 56.9888 52.856C56.7435 52.9787 56.4501 53.04 56.1088 53.04C55.6395 53.04 55.2661 52.928 54.9888 52.704C54.7115 52.48 54.5728 52.184 54.5728 51.816C54.5728 51.4587 54.7008 51.1707 54.9568 50.952C55.2181 50.7333 55.6315 50.624 56.1968 50.624H57.5328V50.368C57.5328 50.0053 57.4315 49.7307 57.2288 49.544C57.0261 49.352 56.7301 49.256 56.3408 49.256C56.0741 49.256 55.8181 49.3013 55.5728 49.392C55.3275 49.4773 55.1168 49.5973 54.9408 49.752L54.6848 49.328C54.8981 49.1467 55.1541 49.008 55.4528 48.912C55.7515 48.8107 56.0661 48.76 56.3968 48.76ZM56.1968 52.592C56.5168 52.592 56.7915 52.52 57.0208 52.376C57.2501 52.2267 57.4208 52.0133 57.5328 51.736V51.048H56.2128C55.4928 51.048 55.1328 51.2987 55.1328 51.8C55.1328 52.0453 55.2261 52.24 55.4128 52.384C55.5995 52.5227 55.8608 52.592 56.1968 52.592ZM61.7373 48.792H62.3053V53H61.7373V48.792ZM62.0253 47.872C61.908 47.872 61.8093 47.832 61.7293 47.752C61.6493 47.672 61.6093 47.576 61.6093 47.464C61.6093 47.3573 61.6493 47.264 61.7293 47.184C61.8093 47.104 61.908 47.064 62.0253 47.064C62.1426 47.064 62.2413 47.104 62.3213 47.184C62.4013 47.2587 62.4413 47.3493 62.4413 47.456C62.4413 47.5733 62.4013 47.672 62.3213 47.752C62.2413 47.832 62.1426 47.872 62.0253 47.872ZM63.8858 48.792H64.4538V53H63.8858V48.792ZM64.1738 47.872C64.0564 47.872 63.9578 47.832 63.8778 47.752C63.7978 47.672 63.7578 47.576 63.7578 47.464C63.7578 47.3573 63.7978 47.264 63.8778 47.184C63.9578 47.104 64.0564 47.064 64.1738 47.064C64.2911 47.064 64.3898 47.104 64.4698 47.184C64.5498 47.2587 64.5898 47.3493 64.5898 47.456C64.5898 47.5733 64.5498 47.672 64.4698 47.752C64.3898 47.832 64.2911 47.872 64.1738 47.872ZM68.1279 48.792H68.6959V53H68.1279V48.792ZM68.4159 47.872C68.2986 47.872 68.1999 47.832 68.1199 47.752C68.0399 47.672 67.9999 47.576 67.9999 47.464C67.9999 47.3573 68.0399 47.264 68.1199 47.184C68.1999 47.104 68.2986 47.064 68.4159 47.064C68.5333 47.064 68.6319 47.104 68.7119 47.184C68.7919 47.2587 68.8319 47.3493 68.8319 47.456C68.8319 47.5733 68.7919 47.672 68.7119 47.752C68.6319 47.832 68.5333 47.872 68.4159 47.872ZM72.4204 48.76C72.9484 48.76 73.367 48.9147 73.6764 49.224C73.991 49.528 74.1484 49.9733 74.1484 50.56V53H73.5804V50.616C73.5804 50.1787 73.471 49.8453 73.2524 49.616C73.0337 49.3867 72.7217 49.272 72.3164 49.272C71.863 49.272 71.503 49.408 71.2364 49.68C70.975 49.9467 70.8444 50.3173 70.8444 50.792V53H70.2764V48.792H70.8204V49.568C70.975 49.312 71.1884 49.1147 71.4604 48.976C71.7377 48.832 72.0577 48.76 72.4204 48.76ZM83.0322 48.76C83.5602 48.76 83.9735 48.912 84.2722 49.216C84.5762 49.52 84.7282 49.968 84.7282 50.56V53H84.1602V50.616C84.1602 50.1787 84.0535 49.8453 83.8402 49.616C83.6322 49.3867 83.3362 49.272 82.9522 49.272C82.5149 49.272 82.1709 49.408 81.9202 49.68C81.6695 49.9467 81.5442 50.3173 81.5442 50.792V53H80.9762V50.616C80.9762 50.1787 80.8695 49.8453 80.6562 49.616C80.4482 49.3867 80.1495 49.272 79.7602 49.272C79.3282 49.272 78.9842 49.408 78.7282 49.68C78.4775 49.9467 78.3522 50.3173 78.3522 50.792V53H77.7842V48.792H78.3282V49.56C78.4775 49.304 78.6855 49.1067 78.9522 48.968C79.2189 48.8293 79.5255 48.76 79.8722 48.76C80.2242 48.76 80.5282 48.8347 80.7842 48.984C81.0455 49.1333 81.2402 49.3547 81.3682 49.648C81.5229 49.3707 81.7442 49.1547 82.0322 49C82.3255 48.84 82.6589 48.76 83.0322 48.76ZM87.7406 48.76C88.2899 48.76 88.7112 48.8987 89.0046 49.176C89.2979 49.448 89.4446 49.8533 89.4446 50.392V53H88.9006V52.344C88.7726 52.5627 88.5832 52.7333 88.3326 52.856C88.0872 52.9787 87.7939 53.04 87.4526 53.04C86.9832 53.04 86.6099 52.928 86.3326 52.704C86.0552 52.48 85.9166 52.184 85.9166 51.816C85.9166 51.4587 86.0446 51.1707 86.3006 50.952C86.5619 50.7333 86.9752 50.624 87.5406 50.624H88.8766V50.368C88.8766 50.0053 88.7752 49.7307 88.5726 49.544C88.3699 49.352 88.0739 49.256 87.6846 49.256C87.4179 49.256 87.1619 49.3013 86.9166 49.392C86.6712 49.4773 86.4606 49.5973 86.2846 49.752L86.0286 49.328C86.2419 49.1467 86.4979 49.008 86.7966 48.912C87.0952 48.8107 87.4099 48.76 87.7406 48.76ZM87.5406 52.592C87.8606 52.592 88.1352 52.52 88.3646 52.376C88.5939 52.2267 88.7646 52.0133 88.8766 51.736V51.048H87.5566C86.8366 51.048 86.4766 51.2987 86.4766 51.8C86.4766 52.0453 86.5699 52.24 86.7566 52.384C86.9432 52.5227 87.2046 52.592 87.5406 52.592ZM90.9873 48.792H91.5553V53H90.9873V48.792ZM91.2753 47.872C91.158 47.872 91.0593 47.832 90.9793 47.752C90.8993 47.672 90.8593 47.576 90.8593 47.464C90.8593 47.3573 90.8993 47.264 90.9793 47.184C91.0593 47.104 91.158 47.064 91.2753 47.064C91.3926 47.064 91.4913 47.104 91.5713 47.184C91.6513 47.2587 91.6913 47.3493 91.6913 47.456C91.6913 47.5733 91.6513 47.672 91.5713 47.752C91.4913 47.832 91.3926 47.872 91.2753 47.872ZM95.2798 48.76C95.8078 48.76 96.2264 48.9147 96.5358 49.224C96.8504 49.528 97.0078 49.9733 97.0078 50.56V53H96.4398V50.616C96.4398 50.1787 96.3304 49.8453 96.1118 49.616C95.8931 49.3867 95.5811 49.272 95.1758 49.272C94.7224 49.272 94.3624 49.408 94.0958 49.68C93.8344 49.9467 93.7038 50.3173 93.7038 50.792V53H93.1358V48.792H93.6798V49.568C93.8344 49.312 94.0478 49.1147 94.3198 48.976C94.5971 48.832 94.9171 48.76 95.2798 48.76ZM98.5498 48.792H99.1178V53H98.5498V48.792ZM98.8378 47.872C98.7205 47.872 98.6218 47.832 98.5418 47.752C98.4618 47.672 98.4218 47.576 98.4218 47.464C98.4218 47.3573 98.4618 47.264 98.5418 47.184C98.6218 47.104 98.7205 47.064 98.8378 47.064C98.9551 47.064 99.0538 47.104 99.1338 47.184C99.2138 47.2587 99.2538 47.3493 99.2538 47.456C99.2538 47.5733 99.2138 47.672 99.1338 47.752C99.0538 47.832 98.9551 47.872 98.8378 47.872ZM100.698 47.064H101.266V53H100.698V47.064ZM106.511 51.072H102.991C103.023 51.5093 103.191 51.864 103.495 52.136C103.799 52.4027 104.183 52.536 104.647 52.536C104.908 52.536 105.148 52.4907 105.367 52.4C105.585 52.304 105.775 52.1653 105.935 51.984L106.255 52.352C106.068 52.576 105.833 52.7467 105.551 52.864C105.273 52.9813 104.967 53.04 104.631 53.04C104.199 53.04 103.815 52.9493 103.479 52.768C103.148 52.5813 102.889 52.3253 102.703 52C102.516 51.6747 102.423 51.3067 102.423 50.896C102.423 50.4853 102.511 50.1173 102.687 49.792C102.868 49.4667 103.113 49.2133 103.423 49.032C103.737 48.8507 104.089 48.76 104.479 48.76C104.868 48.76 105.217 48.8507 105.527 49.032C105.836 49.2133 106.079 49.4667 106.255 49.792C106.431 50.112 106.519 50.48 106.519 50.896L106.511 51.072ZM104.479 49.248C104.073 49.248 103.732 49.3787 103.455 49.64C103.183 49.896 103.028 50.232 102.991 50.648H105.975C105.937 50.232 105.78 49.896 105.503 49.64C105.231 49.3787 104.889 49.248 104.479 49.248ZM111.913 48.76C112.441 48.76 112.859 48.9147 113.169 49.224C113.483 49.528 113.641 49.9733 113.641 50.56V53H113.073V50.616C113.073 50.1787 112.963 49.8453 112.745 49.616C112.526 49.3867 112.214 49.272 111.809 49.272C111.355 49.272 110.995 49.408 110.729 49.68C110.467 49.9467 110.337 50.3173 110.337 50.792V53H109.769V48.792H110.313V49.568C110.467 49.312 110.681 49.1147 110.953 48.976C111.23 48.832 111.55 48.76 111.913 48.76ZM116.918 53.04C116.513 53.04 116.148 52.9493 115.822 52.768C115.497 52.5813 115.241 52.3253 115.054 52C114.868 51.6747 114.774 51.3067 114.774 50.896C114.774 50.4853 114.868 50.1173 115.054 49.792C115.241 49.4667 115.497 49.2133 115.822 49.032C116.148 48.8507 116.513 48.76 116.918 48.76C117.324 48.76 117.689 48.8507 118.014 49.032C118.34 49.2133 118.593 49.4667 118.774 49.792C118.961 50.1173 119.054 50.4853 119.054 50.896C119.054 51.3067 118.961 51.6747 118.774 52C118.593 52.3253 118.34 52.5813 118.014 52.768C117.689 52.9493 117.324 53.04 116.918 53.04ZM116.918 52.536C117.217 52.536 117.484 52.4693 117.718 52.336C117.958 52.1973 118.145 52.0027 118.278 51.752C118.412 51.5013 118.478 51.216 118.478 50.896C118.478 50.576 118.412 50.2907 118.278 50.04C118.145 49.7893 117.958 49.5973 117.718 49.464C117.484 49.3253 117.217 49.256 116.918 49.256C116.62 49.256 116.35 49.3253 116.11 49.464C115.876 49.5973 115.689 49.7893 115.55 50.04C115.417 50.2907 115.35 50.576 115.35 50.896C115.35 51.216 115.417 51.5013 115.55 51.752C115.689 52.0027 115.876 52.1973 116.11 52.336C116.35 52.4693 116.62 52.536 116.918 52.536ZM121.662 48.76C122.212 48.76 122.633 48.8987 122.926 49.176C123.22 49.448 123.366 49.8533 123.366 50.392V53H122.822V52.344C122.694 52.5627 122.505 52.7333 122.254 52.856C122.009 52.9787 121.716 53.04 121.374 53.04C120.905 53.04 120.532 52.928 120.254 52.704C119.977 52.48 119.838 52.184 119.838 51.816C119.838 51.4587 119.966 51.1707 120.222 50.952C120.484 50.7333 120.897 50.624 121.462 50.624H122.798V50.368C122.798 50.0053 122.697 49.7307 122.494 49.544C122.292 49.352 121.996 49.256 121.606 49.256C121.34 49.256 121.084 49.3013 120.838 49.392C120.593 49.4773 120.382 49.5973 120.206 49.752L119.95 49.328C120.164 49.1467 120.42 49.008 120.718 48.912C121.017 48.8107 121.332 48.76 121.662 48.76ZM121.462 52.592C121.782 52.592 122.057 52.52 122.286 52.376C122.516 52.2267 122.686 52.0133 122.798 51.736V51.048H121.478C120.758 51.048 120.398 51.2987 120.398 51.8C120.398 52.0453 120.492 52.24 120.678 52.384C120.865 52.5227 121.126 52.592 121.462 52.592ZM126.037 53.04C125.696 53.04 125.368 52.992 125.053 52.896C124.744 52.7947 124.501 52.6693 124.325 52.52L124.581 52.072C124.757 52.2107 124.979 52.3253 125.245 52.416C125.512 52.5013 125.789 52.544 126.077 52.544C126.461 52.544 126.744 52.4853 126.925 52.368C127.112 52.2453 127.205 52.0747 127.205 51.856C127.205 51.7013 127.155 51.5813 127.053 51.496C126.952 51.4053 126.824 51.3387 126.669 51.296C126.515 51.248 126.309 51.2027 126.053 51.16C125.712 51.096 125.437 51.032 125.229 50.968C125.021 50.8987 124.843 50.784 124.693 50.624C124.549 50.464 124.477 50.2427 124.477 49.96C124.477 49.608 124.624 49.32 124.917 49.096C125.211 48.872 125.619 48.76 126.141 48.76C126.413 48.76 126.685 48.7973 126.957 48.872C127.229 48.9413 127.453 49.0347 127.629 49.152L127.381 49.608C127.035 49.368 126.621 49.248 126.141 49.248C125.779 49.248 125.504 49.312 125.317 49.44C125.136 49.568 125.045 49.736 125.045 49.944C125.045 50.104 125.096 50.232 125.197 50.328C125.304 50.424 125.435 50.496 125.589 50.544C125.744 50.5867 125.957 50.632 126.229 50.68C126.565 50.744 126.835 50.808 127.037 50.872C127.24 50.936 127.413 51.0453 127.557 51.2C127.701 51.3547 127.773 51.568 127.773 51.84C127.773 52.208 127.619 52.5013 127.309 52.72C127.005 52.9333 126.581 53.04 126.037 53.04ZM131.039 52.744C130.933 52.84 130.799 52.9147 130.639 52.968C130.485 53.016 130.322 53.04 130.151 53.04C129.757 53.04 129.453 52.9333 129.239 52.72C129.026 52.5067 128.919 52.2053 128.919 51.816V49.272H128.167V48.792H128.919V47.872H129.487V48.792H130.767V49.272H129.487V51.784C129.487 52.0347 129.549 52.2267 129.671 52.36C129.799 52.488 129.981 52.552 130.215 52.552C130.333 52.552 130.445 52.5333 130.551 52.496C130.663 52.4587 130.759 52.4053 130.839 52.336L131.039 52.744ZM132.617 49.616C132.751 49.3333 132.948 49.12 133.209 48.976C133.476 48.832 133.804 48.76 134.193 48.76V49.312L134.057 49.304C133.615 49.304 133.268 49.44 133.017 49.712C132.767 49.984 132.641 50.3653 132.641 50.856V53H132.073V48.792H132.617V49.616ZM138.847 51.072H135.327C135.359 51.5093 135.527 51.864 135.831 52.136C136.135 52.4027 136.519 52.536 136.983 52.536C137.244 52.536 137.484 52.4907 137.703 52.4C137.921 52.304 138.111 52.1653 138.271 51.984L138.591 52.352C138.404 52.576 138.169 52.7467 137.887 52.864C137.609 52.9813 137.303 53.04 136.967 53.04C136.535 53.04 136.151 52.9493 135.815 52.768C135.484 52.5813 135.225 52.3253 135.039 52C134.852 51.6747 134.759 51.3067 134.759 50.896C134.759 50.4853 134.847 50.1173 135.023 49.792C135.204 49.4667 135.449 49.2133 135.759 49.032C136.073 48.8507 136.425 48.76 136.815 48.76C137.204 48.76 137.553 48.8507 137.863 49.032C138.172 49.2133 138.415 49.4667 138.591 49.792C138.767 50.112 138.855 50.48 138.855 50.896L138.847 51.072ZM136.815 49.248C136.409 49.248 136.068 49.3787 135.791 49.64C135.519 49.896 135.364 50.232 135.327 50.648H138.311C138.273 50.232 138.116 49.896 137.839 49.64C137.567 49.3787 137.225 49.248 136.815 49.248Z" fill="white"/>
</svg>
