<svg width="512" height="512" viewBox="0 0 512 512" fill="none" xmlns="http://www.w3.org/2000/svg">
<path d="M16.64 348.864C16.92 352.384 19.472 355.304 22.928 356.048L50.808 362.064C51.792 366.816 53.04 371.504 54.552 376.08L33.448 395.2C30.832 397.568 30.08 401.376 31.6 404.568C35.456 412.68 39.752 420.176 44.368 426.848C46.368 429.744 50.032 430.992 53.4 429.912L80.496 421.184C83.736 424.816 87.184 428.264 90.816 431.504L82.088 458.6C81.008 461.952 82.248 465.624 85.152 467.632C91.824 472.248 99.32 476.544 107.432 480.4C110.632 481.92 114.432 481.16 116.8 478.552L135.92 457.448C140.504 458.952 145.192 460.208 149.944 461.192L155.96 489.072C156.704 492.52 159.624 495.072 163.136 495.36C167.392 495.696 171.656 496 176 496C180.344 496 184.608 495.696 188.864 495.36C192.384 495.08 195.304 492.528 196.048 489.072L202.064 461.192C206.816 460.208 211.512 458.96 216.088 457.448L235.208 478.552C237.584 481.168 241.392 481.928 244.576 480.4C252.688 476.544 260.184 472.24 266.856 467.632C269.76 465.624 271 461.952 269.92 458.6L261.192 431.504C264.824 428.264 268.272 424.816 271.512 421.192L298.608 429.92C301.96 431.008 305.632 429.76 307.64 426.856C312.256 420.184 316.552 412.688 320.408 404.576C321.928 401.384 321.176 397.576 318.56 395.208L297.456 376.088C298.96 371.504 300.216 366.816 301.2 362.064L329.08 356.048C332.528 355.304 335.08 352.384 335.368 348.872C335.696 344.608 336 340.344 336 336C336 331.656 335.696 327.392 335.36 323.136C335.08 319.616 332.528 316.696 329.072 315.952L301.192 309.936C300.208 305.184 298.96 300.488 297.448 295.912L318.552 276.792C321.168 274.424 321.92 270.616 320.4 267.424C316.544 259.312 312.24 251.816 307.632 245.144C305.624 242.24 301.952 240.992 298.6 242.08L271.504 250.808C268.264 247.176 264.816 243.728 261.184 240.488L269.912 213.392C270.992 210.04 269.752 206.368 266.848 204.36C260.176 199.744 252.68 195.448 244.568 191.592C241.368 190.064 237.568 190.824 235.2 193.44L216.08 214.544C211.496 213.04 206.808 211.784 202.056 210.8L196.04 182.92C195.296 179.472 192.376 176.92 188.864 176.632C180.344 175.944 171.648 175.96 163.128 176.632C159.608 176.912 156.688 179.464 155.944 182.92L149.928 210.8C145.176 211.784 140.488 213.032 135.912 214.544L116.792 193.44C114.424 190.824 110.624 190.072 107.424 191.592C99.312 195.448 91.816 199.744 85.144 204.36C82.24 206.368 81 210.04 82.08 213.392L90.808 240.488C87.176 243.728 83.728 247.176 80.488 250.808L53.4 242.08C50.04 240.992 46.368 242.24 44.368 245.144C39.752 251.816 35.456 259.312 31.6 267.424C30.08 270.616 30.832 274.424 33.448 276.792L54.552 295.912C53.048 300.496 51.792 305.184 50.808 309.936L22.928 315.952C19.48 316.696 16.928 319.616 16.64 323.128C16.304 327.392 16 331.656 16 336C16 340.344 16.304 344.608 16.64 348.864V348.864ZM32.168 330.328L59.384 324.448C62.6 323.752 65.064 321.16 65.592 317.912C66.792 310.536 68.728 303.296 71.344 296.384C72.512 293.312 71.672 289.832 69.232 287.624L48.68 269C50.472 265.568 52.344 262.28 54.28 259.168L80.648 267.664C83.768 268.664 87.208 267.664 89.296 265.12C94.016 259.344 99.344 254.024 105.12 249.296C107.664 247.216 108.68 243.784 107.664 240.648L99.168 214.28C102.28 212.336 105.56 210.464 109 208.68L127.624 229.24C129.84 231.68 133.328 232.52 136.392 231.352C143.288 228.736 150.528 226.8 157.912 225.6C161.16 225.072 163.752 222.608 164.448 219.392L170.32 192.176C174.088 191.976 177.92 191.968 181.672 192.176L187.552 219.392C188.248 222.608 190.84 225.072 194.088 225.6C201.464 226.8 208.704 228.736 215.616 231.352C218.672 232.52 222.16 231.688 224.376 229.24L243 208.688C246.432 210.48 249.72 212.352 252.832 214.288L244.336 240.656C243.328 243.792 244.336 247.216 246.88 249.304C252.656 254.024 257.976 259.352 262.704 265.128C264.792 267.68 268.224 268.696 271.352 267.672L297.72 259.176C299.664 262.288 301.536 265.568 303.32 269L282.76 287.624C280.32 289.832 279.48 293.312 280.648 296.392C283.264 303.288 285.2 310.528 286.4 317.912C286.928 321.16 289.392 323.752 292.608 324.448L319.824 330.32C319.928 332.2 320 334.096 320 336C320 337.904 319.936 339.8 319.832 341.672L292.616 347.552C289.4 348.248 286.936 350.84 286.408 354.088C285.208 361.464 283.272 368.704 280.656 375.616C279.488 378.688 280.328 382.168 282.768 384.376L303.32 403C301.528 406.432 299.656 409.72 297.72 412.832L271.352 404.336C268.208 403.312 264.792 404.328 262.704 406.88C257.992 412.64 252.664 417.968 246.88 422.704C244.336 424.784 243.328 428.216 244.336 431.344L252.832 457.712C249.72 459.656 246.44 461.528 243.008 463.312L224.384 442.752C222.176 440.312 218.696 439.488 215.616 440.64C208.72 443.256 201.48 445.192 194.096 446.392C190.848 446.92 188.256 449.384 187.56 452.6L181.688 479.816C177.92 480.016 174.088 480.024 170.336 479.816L164.456 452.6C163.76 449.384 161.168 446.92 157.92 446.392C150.544 445.192 143.304 443.256 136.392 440.64C133.328 439.472 129.84 440.304 127.632 442.752L109.008 463.304C105.576 461.512 102.288 459.64 99.176 457.704L107.672 431.336C108.68 428.2 107.672 424.776 105.128 422.688C99.352 417.968 94.032 412.64 89.304 406.864C87.216 404.312 83.776 403.304 80.656 404.32L54.288 412.816C52.344 409.704 50.472 406.424 48.688 402.984L69.248 384.36C71.688 382.152 72.528 378.672 71.36 375.592C68.744 368.696 66.808 361.456 65.608 354.072C65.08 350.824 62.616 348.232 59.4 347.536L32.168 341.68C32.072 339.8 32 337.904 32 336C32 334.096 32.064 332.2 32.168 330.328V330.328Z" fill="white"/>
<path d="M433.752 129.88C436.76 128.936 438.936 126.304 439.296 123.168C439.776 119.128 440 115.472 440 112C440 108.528 439.776 104.872 439.304 100.832C438.944 97.696 436.768 95.064 433.76 94.12L411.576 87.152C410.912 85.336 410.176 83.552 409.368 81.808L420.12 61.208C421.576 58.416 421.256 55.024 419.304 52.544C414.672 46.688 409.344 41.36 403.472 36.712C400.992 34.752 397.6 34.44 394.808 35.888L374.192 46.64C372.448 45.84 370.664 45.104 368.848 44.44L361.88 22.256C360.936 19.248 358.304 17.072 355.168 16.712C347.072 15.768 340.92 15.768 332.824 16.712C329.688 17.072 327.056 19.248 326.112 22.256L319.144 44.44C317.328 45.104 315.544 45.84 313.8 46.648L293.2 35.896C290.408 34.448 287.024 34.76 284.536 36.712C278.68 41.344 273.352 46.672 268.704 52.544C266.744 55.024 266.424 58.408 267.88 61.208L278.624 81.808C277.824 83.552 277.088 85.336 276.424 87.152L254.24 94.12C251.232 95.064 249.056 97.696 248.696 100.832C248.224 104.872 248 108.528 248 112C248 115.472 248.224 119.128 248.696 123.168C249.056 126.304 251.232 128.936 254.24 129.88L276.424 136.848C277.088 138.664 277.824 140.448 278.632 142.192L267.88 162.792C266.424 165.584 266.744 168.976 268.696 171.456C273.328 177.312 278.656 182.64 284.528 187.288C287 189.248 290.4 189.56 293.192 188.112L313.792 177.368C315.536 178.168 317.32 178.904 319.136 179.568L326.104 201.752C327.048 204.76 329.68 206.936 332.816 207.296C336.872 207.776 340.528 208 344 208C347.472 208 351.128 207.776 355.168 207.304C358.304 206.944 360.936 204.768 361.88 201.76L368.848 179.576C370.664 178.912 372.448 178.176 374.192 177.368L394.792 188.12C397.584 189.576 400.976 189.264 403.456 187.304C409.312 182.672 414.64 177.344 419.288 171.472C421.248 168.992 421.568 165.608 420.112 162.808L409.36 142.208C410.168 140.464 410.904 138.68 411.568 136.864L433.752 129.88ZM402.872 122.808C400.344 123.608 398.376 125.6 397.608 128.144C396.52 131.76 395.08 135.24 393.336 138.496C392.08 140.832 392.056 143.64 393.288 145.984L403.44 165.44C401.544 167.544 399.536 169.552 397.44 171.44L377.984 161.288C375.632 160.056 372.824 160.088 370.496 161.336C367.24 163.08 363.76 164.52 360.144 165.608C357.608 166.368 355.608 168.344 354.808 170.872L348.216 191.864C345.296 192.04 342.712 192.04 339.784 191.864L333.192 170.872C332.392 168.344 330.4 166.376 327.856 165.608C324.232 164.52 320.752 163.08 317.512 161.336C315.176 160.08 312.368 160.056 310.016 161.288L290.56 171.44C288.456 169.544 286.448 167.536 284.56 165.44L294.712 145.984C295.936 143.64 295.92 140.824 294.664 138.496C292.92 135.24 291.48 131.76 290.392 128.144C289.632 125.608 287.656 123.608 285.128 122.808L264.136 116.216C264.04 114.752 264 113.352 264 112C264 110.648 264.04 109.248 264.136 107.784L285.128 101.192C287.656 100.392 289.624 98.4 290.392 95.856C291.48 92.232 292.92 88.752 294.664 85.512C295.92 83.176 295.944 80.368 294.712 78.016L284.56 58.56C286.456 56.456 288.464 54.448 290.56 52.56L310.016 62.712C312.36 63.936 315.176 63.912 317.504 62.664C320.76 60.92 324.24 59.48 327.856 58.392C330.392 57.632 332.392 55.656 333.192 53.128L339.784 32.136C342.704 31.96 345.288 31.96 348.216 32.136L354.808 53.128C355.608 55.656 357.6 57.624 360.144 58.392C363.768 59.48 367.248 60.92 370.488 62.664C372.824 63.92 375.632 63.944 377.984 62.712L397.44 52.56C399.544 54.456 401.552 56.464 403.44 58.56L393.288 78.016C392.064 80.36 392.08 83.176 393.336 85.504C395.08 88.76 396.52 92.24 397.608 95.856C398.368 98.392 400.344 100.392 402.872 101.192L423.864 107.784C423.96 109.248 424 110.648 424 112C424 113.352 423.96 114.752 423.864 116.216L402.872 122.808Z" fill="white"/>
<path d="M490.096 279.712L476.352 274.832C475.568 272.6 474.672 270.416 473.656 268.296L479.904 255.136C481.208 252.4 480.848 249.168 478.976 246.784C474.976 241.672 470.352 237.04 465.224 233.024C462.832 231.152 459.584 230.8 456.864 232.096L443.696 238.344C441.584 237.336 439.4 236.432 437.168 235.656L432.28 221.912C431.264 219.056 428.712 217.016 425.704 216.648C418.576 215.792 413.416 215.792 406.288 216.648C403.28 217.008 400.728 219.048 399.712 221.912L394.832 235.656C392.6 236.44 390.416 237.336 388.296 238.352L375.136 232.104C372.416 230.808 369.176 231.168 366.784 233.032C361.672 237.032 357.04 241.656 353.024 246.784C351.16 249.168 350.8 252.408 352.096 255.144L358.344 268.312C357.336 270.424 356.432 272.608 355.656 274.84L341.912 279.728C339.056 280.744 337.016 283.296 336.648 286.304C336.208 289.848 336 293.024 336 296C336 298.976 336.208 302.144 336.64 305.704C337 308.712 339.04 311.264 341.904 312.28L355.648 317.16C356.432 319.392 357.328 321.576 358.344 323.696L352.096 336.856C350.792 339.592 351.152 342.824 353.024 345.208C357.024 350.32 361.648 354.952 366.776 358.968C369.16 360.832 372.408 361.192 375.136 359.896L388.304 353.648C390.416 354.656 392.6 355.56 394.832 356.336L399.72 370.08C400.736 372.936 403.288 374.976 406.296 375.344C409.856 375.792 413.024 376 416 376C418.976 376 422.144 375.792 425.704 375.36C428.712 375 431.264 372.96 432.28 370.096L437.16 356.352C439.392 355.568 441.576 354.672 443.696 353.656L456.856 359.904C459.584 361.208 462.832 360.856 465.208 358.976C470.32 354.976 474.952 350.352 478.968 345.224C480.832 342.84 481.192 339.6 479.896 336.864L473.648 323.696C474.656 321.584 475.56 319.4 476.336 317.168L490.08 312.28C492.936 311.264 494.976 308.712 495.344 305.704C495.792 302.144 496 298.976 496 296C496 293.024 495.792 289.856 495.36 286.296C495 283.28 492.96 280.736 490.096 279.712V279.712ZM479.92 298.92L467.24 303.424C464.784 304.296 462.904 306.312 462.208 308.824C461.16 312.624 459.664 316.248 457.768 319.6C456.488 321.864 456.392 324.616 457.504 326.968L463.248 339.072C461.92 340.528 460.528 341.92 459.08 343.24L446.976 337.496C444.64 336.384 441.88 336.48 439.608 337.76C436.248 339.664 432.624 341.152 428.84 342.2C426.328 342.896 424.312 344.776 423.432 347.232L418.928 359.912C416.992 360.016 415.024 360.016 413.088 359.912L408.584 347.232C407.712 344.776 405.696 342.896 403.184 342.2C399.384 341.152 395.76 339.656 392.408 337.76C390.144 336.488 387.4 336.392 385.04 337.496L372.936 343.24C371.48 341.912 370.088 340.52 368.768 339.072L374.512 326.968C375.632 324.616 375.528 321.864 374.248 319.6C372.344 316.24 370.856 312.616 369.808 308.832C369.112 306.32 367.232 304.304 364.776 303.424L352.096 298.92C352.032 297.952 352 296.984 352 296C352 295.016 352.032 294.04 352.08 293.08L364.76 288.568C367.216 287.696 369.096 285.68 369.784 283.168C370.84 279.36 372.336 275.744 374.232 272.392C375.512 270.128 375.608 267.376 374.496 265.024L368.752 252.92C370.08 251.464 371.472 250.072 372.92 248.752L385.024 254.496C387.376 255.616 390.128 255.52 392.392 254.232C395.752 252.328 399.376 250.84 403.16 249.792C405.672 249.096 407.688 247.216 408.568 244.76L413.072 232.08C415.008 231.976 416.976 231.976 418.912 232.08L423.416 244.76C424.288 247.216 426.304 249.096 428.816 249.792C432.616 250.84 436.24 252.336 439.592 254.232C441.864 255.52 444.608 255.616 446.96 254.496L459.064 248.752C460.52 250.08 461.912 251.472 463.232 252.92L457.488 265.024C456.368 267.376 456.472 270.128 457.752 272.392C459.656 275.752 461.144 279.376 462.192 283.16C462.888 285.672 464.768 287.688 467.224 288.568L479.904 293.072C479.968 294.048 480 295.016 480 296C480 296.984 479.968 297.952 479.92 298.92V298.92Z" fill="white"/>
<path d="M176 424C224.52 424 264 384.52 264 336C264 287.48 224.52 248 176 248C127.48 248 88 287.48 88 336C88 384.52 127.48 424 176 424ZM176 264C215.696 264 248 296.304 248 336C248 375.696 215.696 408 176 408C136.304 408 104 375.696 104 336C104 296.304 136.304 264 176 264Z" fill="white"/>
<path d="M16.176 202.872L28.464 213.12C65.096 169.192 118.864 144 176 144C180.072 144 184.136 144.232 188.2 144.488L178.344 154.344L189.656 165.656L213.656 141.656C216.784 138.528 216.784 133.472 213.656 130.344L189.656 106.344L178.344 117.656L189.216 128.528C184.816 128.248 180.408 128 176 128C114.112 128 55.856 155.288 16.176 202.872V202.872Z" fill="white"/>
<path d="M344 72C321.944 72 304 89.944 304 112C304 134.056 321.944 152 344 152C366.056 152 384 134.056 384 112C384 89.944 366.056 72 344 72ZM344 136C330.768 136 320 125.232 320 112C320 98.768 330.768 88 344 88C357.232 88 368 98.768 368 112C368 125.232 357.232 136 344 136Z" fill="white"/>
<path d="M416 264C398.352 264 384 278.352 384 296C384 313.648 398.352 328 416 328C433.648 328 448 313.648 448 296C448 278.352 433.648 264 416 264ZM416 312C407.176 312 400 304.824 400 296C400 287.176 407.176 280 416 280C424.824 280 432 287.176 432 296C432 304.824 424.824 312 416 312Z" fill="white"/>
<path d="M489.568 40.16L449.568 32.16C445.216 31.28 441.016 34.104 440.152 38.432L432.152 78.432L447.84 81.576L452.152 60.04C459.904 76.168 464 93.944 464 112C464 139.584 454.896 165.52 437.68 187L450.168 197.008C469.408 173 480 142.816 480 112C480 91.048 475.16 70.392 465.952 51.752L486.432 55.848L489.568 40.16Z" fill="white"/>
</svg>
