<svg width="512" height="512" viewBox="0 0 512 512" fill="none" xmlns="http://www.w3.org/2000/svg">
<g clip-path="url(#clip0)">
<path d="M131.322 269.907H380.679C384.821 269.907 388.533 267.354 390.016 263.487C391.499 259.621 390.445 255.24 387.365 252.47L262.686 140.37C258.885 136.952 253.116 136.952 249.315 140.37L124.637 252.47C121.557 255.24 120.502 259.62 121.986 263.487C123.468 267.354 127.181 269.907 131.322 269.907ZM266 249.907V170.246L354.6 249.907H266ZM246 170.246V249.907H157.401L246 170.246Z" fill="white"/>
<path d="M461.017 412.878C458.165 412.878 455.344 413.119 452.579 413.586V282.354C458.613 285.938 465.529 287.859 472.651 287.859H472.657C483.788 287.859 494.441 283.126 501.885 274.874C508.92 267.078 512.493 257.014 511.946 246.533C511.398 236.05 506.795 226.409 498.983 219.386L455.68 180.452V87.7797C455.68 82.2578 451.202 77.7798 445.68 77.7798H380.678C375.156 77.7798 370.679 82.2578 370.679 87.7797V104.027L282.317 24.58C267.314 11.088 244.687 11.088 229.719 24.549L149.413 96.0867C145.289 99.7607 144.924 106.082 148.598 110.205C152.272 114.33 158.594 114.696 162.716 111.02L243.057 39.4509C250.436 32.814 261.564 32.815 268.945 39.4519L485.612 234.259C489.446 237.706 491.705 242.436 491.973 247.576C492.242 252.715 490.489 257.65 487.035 261.476C483.377 265.533 478.136 267.859 472.656 267.859C467.874 267.86 463.28 266.098 459.721 262.899L262.686 85.7417C258.885 82.3238 253.116 82.3238 249.315 85.7417L52.2768 262.899C44.3548 270.026 32.1018 269.388 24.9629 261.475C21.5119 257.65 19.7589 252.714 20.0269 247.576C20.2959 242.435 22.5539 237.706 26.4219 234.228L95.6056 171.467C99.6966 167.756 100.004 161.433 96.2936 157.342C92.5836 153.251 86.2576 152.942 82.1686 156.654L13.0189 219.384C5.20595 226.409 0.602969 236.049 0.0549708 246.533C-0.493027 257.013 3.07996 267.078 10.1149 274.874C22.8639 289.003 43.6388 291.724 59.4217 282.355V413.586C56.6567 413.119 53.8358 412.878 50.9838 412.878C22.8719 412.878 0.00197105 435.748 0.00197105 463.86C0.00197105 474.492 3.24396 484.682 9.37893 493.33C11.2539 495.974 14.2939 497.544 17.5349 497.544H494.467C497.708 497.544 500.748 495.974 502.623 493.33C508.758 484.683 512 474.492 512 463.86C511.999 435.748 489.129 412.878 461.017 412.878V412.878ZM390.678 97.7797H435.68V162.469L390.678 122.009V97.7797ZM79.4207 265.39L256 106.626L432.579 265.39V421.572C428.531 424.291 424.862 427.593 421.712 431.395C419.715 430.973 417.67 430.758 415.611 430.758C409.882 430.758 404.437 432.403 399.815 435.332C393.308 427.771 383.674 423.052 373.249 423.052C361.477 423.052 350.564 428.917 344.061 438.742C342.977 440.38 342.399 442.3 342.399 444.263V477.543H314.746V410.622C314.746 378.23 288.393 351.878 256.001 351.878C223.609 351.878 197.256 378.231 197.256 410.622V477.543H169.603V444.263C169.603 442.3 169.025 440.38 167.941 438.742C161.437 428.917 150.525 423.052 138.753 423.052C128.326 423.052 118.692 427.772 112.187 435.332C107.565 432.402 102.12 430.758 96.3906 430.758C94.3316 430.758 92.2866 430.973 90.2896 431.395C87.1396 427.592 83.4706 424.291 79.4227 421.572V265.39H79.4207ZM23.1749 477.544C21.0879 473.316 20.0009 468.664 20.0009 463.86C20.0009 446.776 33.8988 432.878 50.9828 432.878C62.0357 432.878 72.3327 438.837 77.8557 448.429C79.1877 450.742 81.3887 452.426 83.9686 453.108C86.5466 453.788 89.2936 453.41 91.5936 452.057C93.0566 451.196 94.6696 450.759 96.3876 450.759C100.211 450.759 103.643 453.034 105.131 456.556C106.826 460.568 110.916 463.017 115.261 462.621C119.598 462.221 123.176 459.059 124.109 454.805C125.602 447.995 131.759 443.053 138.751 443.053C142.897 443.053 146.795 444.753 149.602 447.699V477.545H23.1749V477.544ZM217.255 477.544V410.623C217.255 389.26 234.636 371.879 256 371.879C277.364 371.879 294.745 389.26 294.745 410.623V477.544H217.255ZM488.825 477.544H362.399V447.698C365.206 444.753 369.104 443.052 373.25 443.052C380.24 443.052 386.397 447.994 387.891 454.804C388.824 459.059 392.403 462.22 396.74 462.62C401.094 463.017 405.176 460.565 406.87 456.555C408.358 453.034 411.79 450.758 415.613 450.758C417.331 450.758 418.944 451.195 420.407 452.056C422.707 453.41 425.453 453.786 428.032 453.107C430.612 452.425 432.813 450.741 434.145 448.428C439.668 438.836 449.965 432.877 461.018 432.877C478.102 432.877 492 446.775 492 463.859C491.999 468.664 490.912 473.316 488.825 477.544V477.544Z" fill="white"/>
<path d="M122.341 143.928C118.172 143.928 114.324 141.231 112.926 137.297C111.547 133.417 112.722 128.971 115.872 126.306C119.156 123.529 123.962 123.184 127.617 125.442C131.114 127.602 132.953 131.86 132.14 135.888C131.209 140.505 127.055 143.928 122.341 143.928V143.928Z" fill="white"/>
<path d="M191.448 374.38H121.703C116.181 374.38 111.703 369.902 111.703 364.38V304.635C111.703 299.113 116.181 294.635 121.703 294.635H191.448C196.97 294.635 201.448 299.113 201.448 304.635V364.38C201.448 369.903 196.971 374.38 191.448 374.38ZM131.703 354.38H181.448V314.635H131.703V354.38Z" fill="white"/>
<path d="M390.298 374.38H320.553C315.031 374.38 310.553 369.902 310.553 364.38V304.635C310.553 299.113 315.031 294.635 320.553 294.635H390.298C395.82 294.635 400.298 299.113 400.298 304.635V364.38C400.298 369.903 395.82 374.38 390.298 374.38ZM330.553 354.38H380.298V314.635H330.553V354.38Z" fill="white"/>
</g>
<defs>
<clipPath id="clip0">
<rect width="512" height="512" fill="white"/>
</clipPath>
</defs>
</svg>
